<svg width="82" height="82" viewBox="0 0 82 82" fill="none" xmlns="http://www.w3.org/2000/svg">
<path d="M0 40C0 21.1438 0 11.7157 5.85786 5.85786C11.7157 0 21.1438 0 40 0H42C60.8562 0 70.2843 0 76.1421 5.85786C82 11.7157 82 21.1438 82 40V42C82 60.8562 82 70.2843 76.1421 76.1421C70.2843 82 60.8562 82 42 82H40C21.1438 82 11.7157 82 5.85786 76.1421C0 70.2843 0 60.8562 0 42V40Z" fill="#264190" fill-opacity="0.5"/>
<g clip-path="url(#clip0_2132_2624)">
<path d="M36.6934 20.0984C34.134 20.3855 31.304 21.3535 29.0481 22.7152C26.6364 24.1754 24.1754 26.6363 22.7153 29.048C21.3208 31.3613 20.3774 34.1504 20.0903 36.8328C19.9754 37.8582 19.9754 39.9582 20.0903 40.9836C20.4676 44.4781 21.9032 47.9644 24.0934 50.7207C26.579 53.8543 30.295 56.2578 34.1586 57.2339C35.9141 57.6769 38.1946 57.9394 38.5719 57.7343C38.9657 57.5293 39.0641 56.9714 38.7606 56.6269C38.5883 56.4218 38.4899 56.3972 37.5137 56.2988C33.0594 55.823 29.5977 54.2152 26.6036 51.2128C24.4215 49.039 22.986 46.6273 22.1493 43.6988C21.854 42.7062 21.5833 41.2461 21.5094 40.2781L21.452 39.6054H22.986C24.5036 39.6054 24.52 39.6054 24.7168 39.4004C24.9875 39.1378 24.9875 38.7113 24.725 38.3996L24.5282 38.1699L23.0024 38.1453L21.4684 38.1125L21.5176 37.489C22.0098 31.4515 25.693 26.0211 31.1481 23.2812C32.9938 22.3625 35.4137 21.6898 37.4973 21.5175L38.129 21.4683V22.5019C38.129 23.7406 38.2192 24.0359 38.6458 24.1754C38.9575 24.282 39.1543 24.2328 39.4251 23.9949C39.5973 23.839 39.6055 23.7652 39.6055 22.6496V21.4683L40.2864 21.5175C43.018 21.7308 45.8071 22.6578 48.1204 24.1179C52.6485 26.9644 55.6016 31.6074 56.2086 36.841L56.3071 37.7187L54.8961 36.3242C53.559 34.9953 53.477 34.9296 53.1735 34.9296C52.8208 34.9379 52.6485 35.0363 52.4926 35.3316C52.2547 35.7664 52.3778 35.9304 54.5926 38.1453C56.8485 40.4011 56.9715 40.4914 57.4555 40.2371C57.5868 40.1632 58.604 39.1953 59.7278 38.0632C61.7293 36.0453 61.754 36.0207 61.754 35.6761C61.754 35.2168 61.4833 34.9296 61.0485 34.9296C60.7614 34.9296 60.6465 35.0199 59.2848 36.3734L57.8329 37.8253L57.7836 37.4644C57.4309 34.38 56.8485 32.3375 55.7083 30.1718C52.8043 24.6347 47.5051 20.9433 41.3036 20.123C40.2454 19.9918 37.7926 19.9753 36.6934 20.0984Z" fill="white"/>
<path d="M43.584 33.1169C40.2863 36.4064 39.7039 36.956 39.5645 36.8986C39.3266 36.8001 38.5062 36.8001 38.2437 36.8986C38.0223 36.9888 37.9566 36.9314 36.1437 35.1185C34.3309 33.3056 34.2652 33.2482 33.9453 33.2482C33.5023 33.2482 33.248 33.5025 33.248 33.9455C33.248 34.2654 33.3055 34.331 35.102 36.1439L36.9559 38.006L36.841 38.4162C36.7262 38.8673 36.7918 39.499 37.0133 39.9173C37.1691 40.2208 37.7516 40.7376 38.0961 40.8853C38.5145 41.0576 39.4004 41.0329 39.8187 40.8279C40.2207 40.6392 40.7211 40.1224 40.8852 39.7204C41.0246 39.3923 41.041 38.4326 40.9098 38.1947C40.8277 38.0388 41.1723 37.6697 44.6832 34.1587C48.7848 30.0572 48.7109 30.1392 48.4484 29.6552C48.3008 29.3763 48.1203 29.2779 47.7676 29.2697C47.4559 29.2697 47.3902 29.3271 43.584 33.1169ZM39.343 38.4818C39.7285 38.8345 39.4414 39.5236 38.9082 39.5236C38.6457 39.5236 38.334 39.2775 38.2848 39.0314C38.2273 38.7525 38.3832 38.449 38.6375 38.3341C38.9328 38.2111 39.0723 38.2439 39.343 38.4818Z" fill="white"/>
<path d="M42.4356 43.9203C42.1649 43.9859 41.6317 44.191 41.2461 44.3797C40.27 44.8473 39.2938 45.8234 38.8098 46.8242C38.3914 47.6691 38.2192 48.3254 38.1946 49.1047C38.1864 49.6215 38.2028 49.7199 38.375 49.9004C38.5145 50.048 38.6539 50.1055 38.8836 50.1055C39.3512 50.1055 39.5809 49.843 39.6465 49.2359C39.7778 48.0137 40.1141 47.2754 40.9098 46.4961C41.7793 45.643 42.6653 45.2656 43.8301 45.2656C46.0942 45.2656 47.825 47.1195 47.5051 49.2031C47.4559 49.5312 47.3082 49.9742 47.177 50.2203C47.0457 50.4746 45.0688 52.8699 42.6079 55.7656C40.1797 58.6285 38.2438 60.9746 38.2028 61.1141C38.1289 61.393 38.17 61.557 38.3996 61.8113L38.5637 62H43.8055C48.9079 62 49.0391 62 49.2032 61.8359C49.5313 61.5078 49.4739 60.8844 49.0883 60.6629C48.9653 60.5891 47.8004 60.5562 44.7489 60.5234L40.5817 60.4824L44.4454 55.9379C48.5633 51.0898 48.6782 50.9258 48.9161 49.7937C49.4821 47.1441 47.8907 44.634 45.2164 43.9531C44.4536 43.7562 43.1739 43.7398 42.4356 43.9203Z" fill="white"/>
<path d="M57.9642 44.0106C57.8083 44.1911 49.9087 55.4293 48.2763 57.8083C47.9071 58.3415 47.8743 58.7106 48.1778 59.0059L48.3747 59.211H53.0505H57.7263L57.7509 60.3922C57.7755 61.5161 57.7837 61.5899 57.9724 61.7868C58.2595 62.0903 58.8009 62.0903 59.0388 61.7868C59.1946 61.5899 59.211 61.4586 59.211 60.3922V59.211H60.3923C61.4587 59.211 61.59 59.1946 61.7868 59.0387C62.0903 58.8008 62.0903 58.2594 61.7868 57.9723C61.59 57.7836 61.5161 57.7754 60.3923 57.7508L59.211 57.7262V50.9586V44.1911L59.006 43.9942C58.7189 43.6989 58.2431 43.7153 57.9642 44.0106ZM57.7099 57.7098C57.6935 57.7262 55.9954 57.7262 53.9282 57.718L50.1794 57.6934L53.9364 52.3286L57.6935 46.9637L57.7181 52.3204C57.7263 55.2653 57.7263 57.6934 57.7099 57.7098Z" fill="white"/>
</g>
<defs>
<clipPath id="clip0_2132_2624">
<rect width="42" height="42" fill="white" transform="translate(20 20)"/>
</clipPath>
</defs>
</svg>
