<svg width="50" height="51" viewBox="0 0 50 51" fill="none" xmlns="http://www.w3.org/2000/svg">
<path d="M0 24.7062C0 13.2085 0 7.45965 3.57187 3.88779C7.14374 0.315918 12.8926 0.315918 24.3902 0.315918H25.6098C37.1074 0.315918 42.8563 0.315918 46.4281 3.88779C50 7.45965 50 13.2085 50 24.7062V25.9257C50 37.4233 50 43.1722 46.4281 46.744C42.8563 50.3159 37.1074 50.3159 25.6098 50.3159H24.3902C12.8926 50.3159 7.14374 50.3159 3.57187 46.744C0 43.1722 0 37.4233 0 25.9257V24.7062Z" fill="#E5F4F2"/>
<g clip-path="url(#clip0_2060_3757)">
<path d="M18.5428 14.1663C17.9422 14.3616 17.7811 14.4837 16.6629 15.5921L15.5838 16.6614H14.1336H12.6834V18.4925V20.3235L13.7674 20.3333L14.8514 20.348L15.1102 22.0569C15.2469 22.9944 15.3641 23.805 15.3641 23.8489C15.369 23.9319 15.2615 23.9368 13.782 23.9368H12.1951V24.4739V25.011H15.8572H19.5193V24.4739V23.9368H18.0106C16.6141 23.9368 16.4969 23.9319 16.4725 23.8489C16.4627 23.805 16.3016 22.7503 16.1209 21.5052L15.7889 19.2493H14.7733H13.7576V18.4925V17.7357H14.9149H16.0721L17.2684 16.5443C18.3572 15.47 18.494 15.348 18.7527 15.2503L19.0359 15.1478L24.7586 15.1575L30.4813 15.1722L30.7254 15.2894C30.9061 15.3773 31.282 15.7142 32.1414 16.5687L33.3182 17.7357H34.4754H35.6326V18.4925V19.2493H34.6072C33.8211 19.2493 33.5818 19.264 33.5818 19.3079C33.5818 19.3421 33.4842 20.0403 33.3572 20.8509C33.2352 21.6663 33.1424 22.345 33.1522 22.3548C33.1863 22.3841 34.1727 22.5306 34.1971 22.511C34.2068 22.4964 34.2801 22.0521 34.3631 21.515C34.4412 20.9827 34.5193 20.4944 34.534 20.431C34.5584 20.3235 34.5584 20.3235 35.6326 20.3235H36.7068V18.4925V16.6614H35.2567H33.8016L32.7762 15.636C31.6922 14.5569 31.409 14.3421 30.8524 14.1712C30.5545 14.0784 30.3738 14.0735 24.6756 14.0784C19.1922 14.0784 18.7918 14.0833 18.5428 14.1663Z" fill="#009379"/>
<path d="M17.3709 19.7864V20.3235H24.6951H32.0193V19.7864V19.2493H24.6951H17.3709V19.7864Z" fill="#009379"/>
<path d="M24.158 27.6234V33.3607H24.6951H25.2322V27.6234V21.886H24.6951H24.158V27.6234Z" fill="#009379"/>
<path d="M29.3338 24.015C28.367 24.22 27.5809 24.9915 27.3563 25.9485C27.3026 26.178 27.283 26.5735 27.283 27.4622V28.6732H27.8152H28.3475L28.367 27.4378L28.3817 26.2073L28.5184 25.929C28.6795 25.6019 28.9578 25.3382 29.3289 25.1624L29.6024 25.0355L33.4012 25.0208L37.1951 25.0062V24.4739V23.9368L33.4256 23.9417C30.3738 23.9417 29.5926 23.9564 29.3338 24.015Z" fill="#009379"/>
<path d="M12.1951 27.1107V27.6478L14.0604 27.6575L15.9305 27.6722L16.4334 31.0657C16.907 34.264 16.9412 34.4788 17.0877 34.7767C17.2928 35.1966 17.6688 35.5677 18.0887 35.7679L18.4207 35.9241H24.6951H30.9695L31.2576 35.7874C31.8436 35.514 32.2684 35.0257 32.4246 34.4495C32.4637 34.2933 32.7127 32.7015 32.9764 30.9046L33.4549 27.6478H35.325H37.1951V27.1107V26.5735H33.533H29.8709V27.6234V28.6732H30.408H30.9451V28.1605V27.6478H31.6531H32.3563L32.3367 27.7796C32.3221 27.8577 32.1121 29.2542 31.8729 30.8948C31.6287 32.5306 31.409 33.9759 31.3797 34.098C31.3162 34.3812 31.1063 34.64 30.8328 34.7718C30.6229 34.8743 30.6082 34.8743 24.6902 34.8743C19.0311 34.8743 18.7527 34.8694 18.5623 34.7816C18.3182 34.6693 18.0789 34.3909 18.0106 34.1224C17.9813 34.015 17.7567 32.5696 17.5174 30.9193C17.2733 29.2689 17.0633 27.8577 17.0486 27.7796L17.0193 27.6478H18.2693H19.5193V27.1107V26.5735H15.8572H12.1951V27.1107Z" fill="#009379"/>
</g>
<defs>
<clipPath id="clip0_2060_3757">
<rect width="25" height="25" fill="white" transform="translate(12.1951 12.511)"/>
</clipPath>
</defs>
</svg>
