<svg width="82" height="82" viewBox="0 0 82 82" fill="none" xmlns="http://www.w3.org/2000/svg">
<path d="M0 40C0 21.1438 0 11.7157 5.85786 5.85786C11.7157 0 21.1438 0 40 0H42C60.8562 0 70.2843 0 76.1421 5.85786C82 11.7157 82 21.1438 82 40V42C82 60.8562 82 70.2843 76.1421 76.1421C70.2843 82 60.8562 82 42 82H40C21.1438 82 11.7157 82 5.85786 76.1421C0 70.2843 0 60.8562 0 42V40Z" fill="#264190" fill-opacity="0.5"/>
<g clip-path="url(#clip0_2132_2651)">
<path d="M24.3969 24.241C22.0918 26.5379 20.1559 28.4738 20.0984 28.5477C20.0328 28.6379 20 28.8512 20.0164 29.0727L20.041 29.45L26.4395 35.8402L32.8379 42.2223L29.2531 45.8152L25.6684 49.4082L24.0113 53.8789C22.018 59.2766 22.1082 58.9977 22.2231 59.3586C22.3215 59.6457 22.707 59.9492 22.9942 59.9492C23.0844 59.9492 25.2992 59.1535 27.916 58.1855L32.6738 56.4219L36.2668 52.8289L39.8516 49.2441L46.2336 55.6262L52.6074 62H53.0586H53.5098L57.759 57.7508L62 53.5016V53.0586V52.6156L55.6262 46.2336L49.2442 39.8516L54.1332 34.9461C59.3668 29.7043 59.3504 29.7207 59.7113 28.5312C59.9246 27.8176 59.9656 26.702 59.7934 25.9883C59.4488 24.5609 58.4399 23.2977 57.1192 22.6742C56.3481 22.3051 55.7902 22.182 54.8551 22.1984C53.9938 22.2066 53.1488 22.4281 52.4106 22.8465C52.1809 22.9777 50.1629 24.9219 47.1277 27.9488L42.2305 32.8379L35.8485 26.4559L29.4664 20.082H29.0317H28.5887L24.3969 24.241ZM28.9906 25.6602C28.0227 26.6281 27.1942 27.5059 27.1449 27.6043C26.9809 27.9242 27.0383 28.2605 27.2926 28.5477C27.4977 28.7773 27.5879 28.8184 27.9078 28.8184H28.2852L30.1309 26.9727L31.9766 25.127L33.1824 26.3328L34.3965 27.5469L33.1414 28.802L31.8945 30.057V30.4508C31.8945 30.984 32.2145 31.3203 32.7231 31.3203C33.0676 31.3203 33.1004 31.2875 34.3555 30.0488L35.627 28.7773L36.759 29.9094L37.8828 31.0332L36.0371 32.8789C34.2324 34.6918 34.1914 34.741 34.1914 35.0691C34.1914 35.6926 34.7574 36.1191 35.307 35.9141C35.4383 35.8648 36.3488 35.0199 37.3332 34.0438L39.1133 32.2637L40.032 33.1906L40.959 34.1094L37.5383 37.5301L34.1176 40.9508L33.3137 40.1961C32.8707 39.7859 30.1637 37.1035 27.3008 34.2406L22.0918 29.0234L25.5371 25.5781L28.9824 22.1328L29.8602 23.0105L30.7461 23.8965L28.9906 25.6602ZM55.4867 23.9457C57.1848 24.2574 58.4481 25.9801 58.1527 27.5879C58.0215 28.318 57.6524 28.9906 57.0781 29.5566L56.586 30.0488L54.3137 27.7684L52.0332 25.4961L52.5254 25.0039C53.0504 24.4707 53.7559 24.0688 54.3711 23.9457C54.8879 23.8473 54.9371 23.8473 55.4867 23.9457ZM54.5188 32.116L53.6738 32.9609L51.4016 30.6887L49.1211 28.4082L49.9578 27.5715L50.8027 26.7266L53.075 28.9988L55.3555 31.2793L54.5188 32.116ZM50.1875 31.9355L52.4434 34.1914L42.3289 44.3059L32.2227 54.4121L29.9504 52.1316L27.6699 49.8594L37.7598 39.7695C43.3051 34.216 47.866 29.6797 47.8906 29.6797C47.9152 29.6797 48.9488 30.6969 50.1875 31.9355ZM48.916 42.0664L49.8184 42.9688L48.0383 44.757C47.0621 45.7332 46.2254 46.6273 46.168 46.734C45.9137 47.2344 46.3895 47.8906 47.0129 47.8906C47.341 47.8906 47.3902 47.8496 49.2031 46.0449L51.0488 44.1992L52.2547 45.4051L53.4688 46.6191L52.1973 47.8906C50.9586 49.1457 50.9258 49.1785 50.9258 49.523C50.9258 50.0316 51.2621 50.3516 51.7953 50.3516H52.1891L53.4442 49.1047L54.6992 47.8496L55.9133 49.0637L57.1192 50.2695L55.2735 52.1152L53.4277 53.9609V54.3383C53.4277 54.6582 53.4688 54.7484 53.6985 54.9535C53.9856 55.2078 54.3219 55.2652 54.6418 55.1012C54.7402 55.052 55.618 54.2234 56.586 53.2555L58.3496 51.5L59.1207 52.2711L59.8918 53.0504L59.2274 53.7723C58.8664 54.166 57.3242 55.7328 55.8149 57.2422L53.0586 59.9902L47.7594 54.6992C44.8473 51.7871 42.1649 49.0801 41.8039 48.6863L41.1395 47.9645L44.5356 44.5602C46.4059 42.6898 47.9481 41.1641 47.9727 41.1641C47.9973 41.1641 48.4238 41.5742 48.916 42.0664ZM28.7527 53.4031L30.6641 55.3145L29.0152 55.9215L27.3664 56.5285L26.4641 55.6262L25.5617 54.7238L26.1524 53.1078C26.4805 52.2219 26.7758 51.5 26.8004 51.5C26.825 51.5 27.7109 52.3613 28.7527 53.4031ZM25.2664 56.8895L25.5781 57.193L25.1844 57.3406C24.4543 57.6195 24.4953 57.6441 24.684 57.0863C24.7824 56.8074 24.8809 56.5859 24.9055 56.5859C24.9301 56.5859 25.0942 56.7254 25.2664 56.8895Z" fill="white"/>
<path d="M44.8555 36.1356C44.716 36.1602 43.3707 37.4481 40.7621 40.0403C38.6293 42.1731 36.7754 44.0598 36.6442 44.2321C36.3653 44.6094 36.3406 44.9539 36.5703 45.3231C36.7426 45.6102 37.1281 45.7332 37.5301 45.643C37.8746 45.561 45.8891 37.5137 45.9465 37.1938C46.0613 36.5047 45.561 36.0207 44.8555 36.1356Z" fill="white"/>
<path d="M34.7082 46.3075C34.1176 46.4223 33.8961 47.2837 34.3473 47.7348C34.8149 48.2024 35.6516 47.9727 35.7746 47.3493C35.8977 46.693 35.3727 46.1844 34.7082 46.3075Z" fill="white"/>
</g>
<defs>
<clipPath id="clip0_2132_2651">
<rect width="42" height="42" fill="white" transform="translate(20 20)"/>
</clipPath>
</defs>
</svg>
