<svg width="45" height="60" viewBox="0 0 45 60" fill="none" xmlns="http://www.w3.org/2000/svg">
<path d="M22.1913 0.339168C22.0979 0.588079 21.849 1.22591 21.6623 1.73929C21.4601 2.25267 21.0089 3.26387 20.6356 3.99505C18.3176 8.64657 15.7974 12.0535 10.5236 17.6851C6.63433 21.8544 5.80982 22.8034 4.42525 24.7013C1.70279 28.435 0.458232 31.6397 0.100423 35.809C-0.44407 42.1562 1.22052 47.5233 5.21865 52.2838C6.96103 54.3684 9.63682 56.4219 12.3126 57.7754C13.7905 58.5376 16.7775 59.4866 18.5043 59.7666C20.3867 60.0778 24.4937 60.0778 26.2361 59.7666C34.1234 58.3821 40.7974 52.8438 43.5509 45.3765C44.4999 42.8251 44.671 41.6739 44.671 37.9869C44.671 33.5532 44.3288 31.9664 42.6486 28.4972C41.1396 25.3703 39.4439 23.2234 33.5634 16.9851C30.6076 13.8581 28.8963 11.7424 26.905 8.78658C25.4893 6.6864 23.6847 3.29498 22.9847 1.42815C22.3313 -0.28311 22.4091 -0.189768 22.1913 0.339168ZM25.8471 22.1967C32.0855 23.5346 37.1726 28.6372 38.4638 34.7978C38.7905 36.3846 38.8372 39.5737 38.5416 40.9272C37.4215 46.0454 34.139 50.2302 29.4408 52.5171C23.9492 55.1929 17.4775 54.5395 12.4837 50.7903C9.59015 48.6279 7.34995 45.3143 6.47876 41.954C6.05873 40.336 5.90316 37.4113 6.15207 35.6067C6.91436 29.8507 11.3948 24.608 17.1508 22.6789C19.0332 22.0411 19.8422 21.9322 22.3468 21.9011C23.887 21.9011 24.8204 21.9633 25.8471 22.1967Z" fill="#4C6FB1"/>
<path d="M19.7061 25.6503C19.5972 25.7592 19.5194 26.3348 19.5194 27.1282C19.5194 28.2328 19.4727 28.435 19.2549 28.5128C19.0993 28.5595 18.7104 28.7306 18.3682 28.8862C17.6837 29.2284 17.4503 29.1662 16.8125 28.4195C16.5947 28.155 16.2057 27.7661 15.9568 27.5483L15.4901 27.1594L13.5455 29.0573C12.4721 30.0996 11.5853 31.0175 11.5853 31.0953C11.5853 31.1886 12.0365 31.6864 12.5965 32.2154L13.6233 33.1954L13.2188 33.9733C13.001 34.4089 12.8299 34.8445 12.8299 34.9378C12.8299 35.0623 12.4721 35.0934 11.632 35.0156C9.8274 34.8756 9.81184 34.9067 9.74962 37.3958C9.73406 38.5004 9.76517 39.6827 9.84296 40.0249L9.96741 40.6317L11.3675 40.6783L12.7677 40.725L13.1721 41.6584L13.5922 42.5918L12.5499 43.5719L11.5231 44.5676L11.912 45.0187C12.5032 45.7188 15.4123 48.4879 15.5679 48.4879C15.6457 48.4879 16.128 48.0523 16.6725 47.5234L17.637 46.5744L18.5393 46.9633L19.4416 47.3522L19.4883 48.659C19.5194 49.3591 19.6127 50.0436 19.7061 50.1525C19.8305 50.3081 20.4995 50.3547 22.3196 50.3547C23.6731 50.3547 24.8865 50.3081 25.0265 50.2614C25.2288 50.1836 25.2754 49.9036 25.2754 48.7835C25.2754 47.4145 25.2754 47.3834 25.711 47.2122C25.9444 47.1189 26.3644 46.9322 26.6289 46.7922L27.1423 46.5433L28.1224 47.5234C28.6513 48.0523 29.1647 48.4879 29.2425 48.4879C29.4291 48.4879 33.2095 44.8165 33.2095 44.6453C33.2095 44.5676 32.7583 44.0697 32.2138 43.5252L31.2182 42.5296L31.5293 41.8918C31.7004 41.5495 31.8871 41.145 31.9494 41.0206C32.0427 40.8495 32.4161 40.7717 33.4273 40.7406C34.7029 40.6939 34.7807 40.6783 34.9207 40.305C35.0141 40.0872 35.0763 38.9048 35.0763 37.6758C35.0763 35.4356 35.0763 35.4201 34.6874 35.1712C34.3607 34.9689 34.0651 34.9223 33.1939 35L32.0894 35.0934L31.716 34.2378C31.5138 33.771 31.3426 33.3199 31.3426 33.2266C31.3426 33.1332 31.6693 32.7443 32.0894 32.3398C33.4117 31.033 33.4584 31.2664 31.6382 29.4151C30.7515 28.5128 29.8336 27.6416 29.6158 27.486L29.2113 27.1905L28.169 28.1861L27.1267 29.1818L26.3955 28.8395C25.2288 28.295 25.2754 28.3572 25.2754 26.9416C25.2754 25.9148 25.2288 25.6348 25.0265 25.557C24.5443 25.3703 19.9083 25.4481 19.7061 25.6503ZM24.6376 33.5688C27.5779 35.0467 28.2157 38.9826 25.8666 41.3162C24.8087 42.3585 24.0309 42.6541 22.3974 42.6541C21.184 42.6541 20.8884 42.5918 20.2194 42.234C17.9326 41.0206 16.9369 38.4848 17.8081 36.1357C18.2281 35.0156 19.1927 34.0044 20.3439 33.4599C20.9817 33.1643 21.4018 33.0865 22.413 33.0865C23.5175 33.0865 23.7975 33.1488 24.6376 33.5688Z" fill="#264190"/>
</svg>
