<svg width="82" height="82" viewBox="0 0 82 82" fill="none" xmlns="http://www.w3.org/2000/svg">
<path d="M0 40C0 21.1438 0 11.7157 5.85786 5.85786C11.7157 0 21.1438 0 40 0H42C60.8562 0 70.2843 0 76.1421 5.85786C82 11.7157 82 21.1438 82 40V42C82 60.8562 82 70.2843 76.1421 76.1421C70.2843 82 60.8562 82 42 82H40C21.1438 82 11.7157 82 5.85786 76.1421C0 70.2843 0 60.8562 0 42V40Z" fill="#264190" fill-opacity="0.5"/>
<path d="M37.4727 20.1313C36.2668 20.4594 34.7656 21.4766 33.3465 22.9449C32.5016 23.8227 32.4688 23.8719 32.4688 24.2164C32.4688 24.6922 32.7641 24.9629 33.207 24.8891C34.5031 24.684 34.7246 24.725 35.6598 25.3566C36.9477 26.218 38.5227 26.8086 39.5562 26.8086C40.516 26.8086 41.525 26.423 42.1977 25.8078L42.5668 25.4715L42.8703 25.7176C43.2887 26.0539 43.5266 26.5707 43.5922 27.268L43.6414 27.8504L42.9441 27.8996C41.3445 28.0227 39.4906 28.5477 37.9156 29.3105C33.0758 31.6813 29.8438 36.7262 29.8438 41.9352C29.8438 42.8457 29.852 42.9031 30.0488 43.0918C30.3031 43.3543 30.6641 43.3543 30.9676 43.1C31.1891 42.9113 31.1891 42.8867 31.2465 41.6891C31.3367 39.8188 31.7059 38.375 32.5098 36.6934C32.9773 35.7254 33.568 34.7656 33.691 34.7656C33.8305 34.7656 35.1266 35.7664 35.5941 36.234C36.1848 36.8328 36.5703 37.4891 36.5703 37.9238C36.5703 38.4898 36.3406 39.1953 35.7746 40.3438C35.1922 41.5332 35.102 41.927 35.3645 42.2141C35.5695 42.4355 35.8895 42.5094 36.1766 42.3863C36.3734 42.3043 36.5129 42.0746 37.0215 41.0328C37.8008 39.4004 37.9074 39.0313 37.9156 38.0059C37.9238 37.2348 37.9074 37.1527 37.6531 36.6359C37.3086 35.9305 36.398 34.9543 35.3562 34.175L34.577 33.5844L35.3973 32.7969C36.1191 32.0996 37.7187 30.9102 37.9402 30.9102C37.9812 30.9102 38.1043 31.066 38.2109 31.2547C39.0066 32.6902 39.9992 33.7648 40.9672 34.2406C41.525 34.5195 41.6727 34.5605 42.3535 34.5852C43.6824 34.6426 44.675 34.3309 46.0039 33.4203C46.7832 32.8871 47.0375 32.8461 47.9809 33.1332C49.2359 33.5105 50.3598 33.2152 51.418 32.2309L51.943 31.7387L52.2383 31.952C52.8453 32.4113 53.5836 33.1086 54.0512 33.65L54.527 34.216L54.1414 34.7164C53.5508 35.4711 53.3785 35.7746 52.6648 37.2348C52.2793 38.0305 51.9102 38.6785 51.7543 38.818C51.4262 39.1297 51.0406 39.1871 49.4984 39.1379C47.6773 39.0805 46.7504 39.3184 45.7824 40.0895C44.8227 40.8441 43.8383 42.698 43.666 44.0516C43.6168 44.4207 43.6332 44.5191 43.7891 44.716C43.9285 44.8965 44.0352 44.9375 44.3141 44.9375C44.7816 44.9375 44.9129 44.7816 45.1098 43.9777C45.4215 42.7227 46.209 41.4512 47.0047 40.9508C47.5871 40.5816 48.1039 40.5078 49.9004 40.5242C51.3031 40.5324 51.5902 40.516 51.8691 40.393C52.7633 40.0074 53.1816 39.4824 54.043 37.6695C54.3629 37.0051 54.7895 36.2258 54.9945 35.9387L55.3719 35.4055L55.5277 35.668C56.1266 36.6441 56.7172 38.1125 57.0125 39.3594C57.2012 40.1879 57.3898 40.4258 57.8082 40.4258C58.1527 40.4176 58.3496 40.2863 58.4645 39.9992C58.5629 39.7449 58.3496 38.7113 57.9723 37.6203C56.1184 32.2063 51.2867 28.4246 45.5609 27.9078L44.9211 27.8504L44.9703 27.268C45.0359 26.5707 45.2738 26.0539 45.6922 25.7176L45.9957 25.4715L46.3648 25.8078C47.0375 26.423 48.0465 26.8086 49.0062 26.8086C50.0398 26.8086 51.6148 26.218 52.9027 25.3566C53.8379 24.725 54.0594 24.684 55.3555 24.8891C55.7984 24.9629 56.0937 24.6922 56.0937 24.2164C56.0937 23.8719 56.0609 23.8227 55.257 22.9859C53.9609 21.6406 52.7059 20.7219 51.5328 20.2789C50.7125 19.959 49.5641 19.918 48.6699 20.1559C46.7914 20.6727 45.9137 21.7063 45.6348 23.716C45.5937 24.0441 45.5445 24.1262 45.3312 24.2328C45.1918 24.3066 44.8965 24.5363 44.675 24.7332L44.2812 25.1105L43.8875 24.7332C43.666 24.5363 43.3707 24.3066 43.2312 24.2328C43.018 24.1262 42.9687 24.0441 42.9277 23.716C42.6488 21.7145 41.7711 20.6809 39.9336 20.1723C39.2035 19.9672 38.1453 19.9508 37.4727 20.1313ZM39.9664 21.6406C40.6145 21.8867 41.1887 22.4609 41.3527 23.0023C41.4184 23.2238 41.4594 23.4207 41.443 23.4371C41.4266 23.4535 41.0984 23.3305 40.7047 23.1664C39.909 22.8383 39.548 22.7973 39.2691 23.027C39.0148 23.232 38.9984 23.7816 39.2363 24.0031C39.3266 24.0934 39.7777 24.3148 40.2453 24.5117C41.1969 24.9055 41.2133 24.9629 40.4586 25.25C39.7613 25.5043 39.1543 25.4715 38.2602 25.1188C37.4562 24.7988 37.0461 24.5773 36.2996 24.0852C36.0371 23.9047 35.6023 23.6832 35.3316 23.5766L34.8312 23.3879L35.5121 22.8383C36.2668 22.2313 37.0461 21.7637 37.6777 21.534C38.2437 21.3371 39.302 21.3863 39.9664 21.6406ZM51.2867 21.7063C51.8937 21.9934 52.6895 22.5184 53.3129 23.0598L53.7066 23.3961L53.2391 23.5684C52.9848 23.6586 52.55 23.8883 52.2793 24.0688C51.5246 24.5773 51.1145 24.7906 50.3023 25.1188C49.4082 25.4715 48.8012 25.5043 48.1039 25.25C47.3492 24.9629 47.3656 24.9055 48.3172 24.5117C48.7848 24.3148 49.2359 24.0934 49.3262 24.0031C49.5641 23.7816 49.5477 23.232 49.2934 23.027C49.0145 22.7973 48.6453 22.8383 47.8824 23.1582C47.5051 23.3141 47.1687 23.4453 47.1359 23.4453C47.0293 23.4453 47.3 22.6988 47.5215 22.4117C48.268 21.4355 50.007 21.1074 51.2867 21.7063ZM46.9391 29.5156C47.9645 29.7371 49.2031 30.1719 50.048 30.5902L50.7043 30.9266L50.4008 31.2301C50.0152 31.6238 49.482 31.8945 49.0883 31.8945C48.9242 31.8945 48.5223 31.8207 48.2023 31.7305C47.8496 31.632 47.3574 31.5664 46.9883 31.5664C46.2746 31.5664 45.9301 31.7059 44.9375 32.4113C44.1418 32.9691 43.5512 33.166 42.6406 33.166C41.8039 33.166 41.5168 33.0512 40.8359 32.4113C40.3848 32.0012 39.6957 31.0824 39.4086 30.5246C39.2445 30.2047 39.2281 30.2129 40.3438 29.8602C42.4684 29.1875 44.8637 29.0645 46.9391 29.5156Z" fill="white"/>
<path d="M56.0855 41.7711C55.4047 42.0336 55.1094 42.2879 52.5418 44.8391C49.9004 47.4723 49.8594 47.5133 49.7281 47.3328C49.5066 47.0129 49.0883 46.6602 48.7109 46.4715C48.3418 46.291 48.3008 46.291 44.2895 46.2664L40.2371 46.2418L39.6465 45.684C39.3266 45.3805 38.8918 45.0113 38.6785 44.8719C38.0305 44.4207 36.9969 43.9695 36.193 43.7809C35.5285 43.6332 35.2578 43.6086 34.2488 43.6414C33.2727 43.6824 32.9691 43.7234 32.3867 43.9121C30.8773 44.3961 30.2867 44.8145 28.2277 46.8488L26.5625 48.4895L26.0785 48.0301C25.6438 47.6117 25.5535 47.5625 25.2418 47.5625C24.8891 47.5625 24.8645 47.5871 23.4289 49.0227C21.977 50.4746 21.9688 50.4828 21.9688 50.8437V51.2129L27.3664 56.6023L32.7559 62H33.125C33.4859 62 33.4941 61.9918 34.9461 60.5398C36.3816 59.1043 36.4063 59.0797 36.4063 58.727C36.4063 58.4152 36.357 58.325 35.9387 57.8902L35.4711 57.398L35.9223 56.9387C36.759 56.0773 36.275 56.143 42.7637 56.0855C48.8504 56.0363 48.6125 56.0527 49.6953 55.6016C50.8027 55.134 51.1637 54.8141 55.4129 50.573C60.2035 45.7906 59.9902 46.0613 59.9902 44.6094C59.9902 43.8629 59.9656 43.6906 59.7852 43.3379C59.5309 42.8129 58.8746 42.1566 58.3496 41.9023C57.8492 41.6562 56.5777 41.5824 56.0855 41.7711ZM57.8 43.223C58.3168 43.4773 58.6367 44.0023 58.6367 44.593C58.6367 44.8391 58.5793 45.1508 58.5137 45.2984C58.4398 45.4461 56.5121 47.4312 54.2234 49.7117C50.2695 53.6492 50.0316 53.8707 49.4492 54.1578C48.227 54.7484 48.473 54.7238 42.1895 54.773L36.5293 54.8223L36.0617 55.052C35.8074 55.175 35.3398 55.5195 35.0117 55.823L34.4211 56.3645L31.0086 52.9437L27.5879 49.523L29.3516 47.784C30.9266 46.2254 31.1891 45.9957 31.7879 45.6922C32.7148 45.2164 33.5434 45.0113 34.5605 45.0113C36.2504 45.0113 37.5875 45.6102 38.8672 46.9227L39.4824 47.5543L43.666 47.5789C47.7184 47.6035 47.8578 47.6117 48.1367 47.7758C49.0145 48.2926 49.0145 49.4574 48.1367 49.9742C47.8578 50.1383 47.7102 50.1465 42.9031 50.1875C38.1207 50.2285 37.9484 50.2367 37.8336 50.3844C37.6613 50.6223 37.6859 51.1391 37.8828 51.3359C38.0469 51.5 38.1535 51.5 43.0836 51.5C48.5879 51.5 48.4648 51.5082 49.1457 51.0078C49.5805 50.6879 49.9742 50.1219 50.1055 49.6379C50.2039 49.277 50.45 49.0062 53.1324 46.3074C54.7402 44.6914 56.184 43.2969 56.3398 43.2148C56.7336 43.0016 57.3406 43.0098 57.8 43.223ZM30.0078 54.002L34.7246 58.7187L33.9207 59.5145L33.125 60.3184L28.3918 55.5852L23.6504 50.8437L24.4297 50.0645C24.8563 49.6379 25.2254 49.2852 25.25 49.2852C25.2746 49.2852 27.4156 51.4098 30.0078 54.002Z" fill="white"/>
</svg>
