<svg width="50" height="51" viewBox="0 0 50 51" fill="none" xmlns="http://www.w3.org/2000/svg">
<path d="M0 24.7062C0 13.2085 0 7.45965 3.57187 3.88779C7.14374 0.315918 12.8926 0.315918 24.3902 0.315918H25.6098C37.1074 0.315918 42.8563 0.315918 46.4281 3.88779C50 7.45965 50 13.2085 50 24.7062V25.9257C50 37.4233 50 43.1722 46.4281 46.744C42.8563 50.3159 37.1074 50.3159 25.6098 50.3159H24.3902C12.8926 50.3159 7.14374 50.3159 3.57187 46.744C0 43.1722 0 37.4233 0 25.9257V24.7062Z" fill="#E5F4F2"/>
<g clip-path="url(#clip0_2060_3752)">
<path d="M13.1326 12.931C12.8445 13.0726 12.615 13.3411 12.532 13.6292C12.4979 13.7464 12.4881 15.5824 12.4979 19.2298L12.5125 24.6546L12.659 24.8939C12.7518 25.0404 12.8982 25.1868 13.0447 25.2796C13.2645 25.4115 13.323 25.4261 13.7088 25.4261C14.0945 25.4261 14.1531 25.4115 14.3729 25.2796C14.5193 25.1868 14.6658 25.0404 14.7586 24.8939C14.9051 24.6546 14.9051 24.6497 14.9197 23.805L14.9344 22.9603H17.1463H19.3582L19.4168 23.0872C19.5291 23.3411 19.7293 23.5462 19.9832 23.6683L20.2371 23.7952L21.4578 23.7806L22.6785 23.7659L22.9178 23.6195C23.0643 23.5267 23.2107 23.3802 23.3035 23.2337C23.4305 23.0238 23.45 22.9359 23.4695 22.5892L23.4842 22.1839L23.616 22.2474C23.7771 22.3353 23.9773 22.5452 24.0896 22.765C24.1775 22.9261 24.1824 23.1458 24.1971 27.1449L24.2117 31.3587L20.4568 31.3685L16.702 31.3831L16.4627 31.5296C16.3162 31.6224 16.1697 31.7689 16.077 31.9154C15.9451 32.1351 15.9305 32.1937 15.9305 32.5794C15.9305 32.9652 15.9451 33.0238 16.077 33.2435C16.1697 33.39 16.3162 33.5365 16.4627 33.6292L16.702 33.7757L17.8348 33.8001C19.0066 33.8245 19.0408 33.8294 19.2117 34.0443C19.2898 34.137 19.2898 34.4398 19.2117 34.5325C19.0311 34.7572 19.1336 34.7523 16.1258 34.7767L13.284 34.8011L13.0447 34.9476C12.8982 35.0404 12.7518 35.1868 12.659 35.3333C12.5271 35.5531 12.5125 35.6116 12.5125 35.9974C12.5125 36.3831 12.5271 36.4417 12.659 36.6615C12.7518 36.8079 12.8982 36.9544 13.0447 37.0472L13.284 37.1937L17.8006 37.2083C22.8885 37.223 22.4979 37.2523 22.4979 36.8519C22.4979 36.4564 22.8494 36.4857 18.0691 36.4857C15.7303 36.4857 13.7527 36.471 13.6648 36.4564C13.4451 36.4124 13.2693 36.2171 13.2693 36.012C13.2693 35.8314 13.3719 35.6409 13.5037 35.5726C13.5477 35.5531 14.8611 35.5238 16.4236 35.5091L19.2605 35.4847L19.4998 35.3382C19.6463 35.2454 19.7928 35.099 19.8855 34.9525C20.0174 34.7327 20.032 34.6741 20.032 34.2884C20.032 33.9027 20.0174 33.8441 19.8855 33.6243C19.7928 33.4779 19.6463 33.3314 19.4998 33.2386L19.2605 33.0921L18.1277 33.0677C16.9559 33.0433 16.9217 33.0384 16.7508 32.8236C16.6678 32.721 16.6727 32.4525 16.7654 32.3109C16.8094 32.2425 16.9217 32.1693 17.0242 32.14C17.2195 32.0863 35.4568 32.0667 35.7254 32.1204C35.95 32.1693 36.1209 32.3597 36.1209 32.5745C36.1209 32.6722 36.0916 32.7845 36.0574 32.8236C35.8768 33.0482 35.9158 33.0433 33.826 33.0677L31.8387 33.0921L31.5994 33.2386C31.4529 33.3314 31.3064 33.4779 31.2137 33.6243C31.0818 33.8441 31.0672 33.9027 31.0672 34.2884C31.0672 34.6741 31.0818 34.7327 31.2137 34.9525C31.3064 35.099 31.4529 35.2454 31.5994 35.3382L31.8387 35.4847L33.826 35.5091C35.9158 35.5335 35.8768 35.5286 36.0574 35.7532C36.0916 35.7923 36.1209 35.9046 36.1209 36.0023C36.1209 36.2171 35.95 36.4075 35.7254 36.4564C35.6375 36.471 32.8885 36.4857 29.6023 36.4857C23.8846 36.4857 23.6307 36.4906 23.5574 36.5736C23.4451 36.7005 23.45 37.0325 23.5623 37.14C23.6453 37.2132 24.1287 37.2181 29.8807 37.2083L36.1062 37.1937L36.3455 37.0472C36.492 36.9544 36.6385 36.8079 36.7312 36.6615C36.8631 36.4417 36.8777 36.3831 36.8777 35.9974C36.8777 35.6116 36.8631 35.5531 36.7312 35.3333C36.6385 35.1868 36.492 35.0404 36.3455 34.9476L36.1062 34.8011L34.1189 34.7767C32.0291 34.7523 32.0682 34.7572 31.8875 34.5325C31.7508 34.3665 31.8533 33.9661 32.0584 33.8636C32.1023 33.8441 33.035 33.8148 34.1238 33.8001L36.1062 33.7757L36.3455 33.6292C36.492 33.5365 36.6385 33.39 36.7312 33.2435C36.8631 33.0238 36.8777 32.9652 36.8777 32.5794C36.8777 32.1937 36.8631 32.1351 36.7312 31.9154C36.6385 31.7689 36.492 31.6224 36.3455 31.5296L36.1062 31.3831L33.0838 31.3685L30.0662 31.3587V26.9251C30.0662 22.1351 30.0662 22.1107 29.7977 21.1781C29.6316 20.597 29.1238 19.5667 28.743 19.054C27.6736 17.599 26.0135 16.5833 24.2312 16.2952C23.992 16.2562 23.7234 16.222 23.6355 16.222H23.4842L23.4646 15.7679C23.45 15.3577 23.4354 15.2845 23.3035 15.0697C23.2107 14.9232 23.0643 14.7767 22.9178 14.6839L22.6785 14.5374H21.3992H20.1199L19.8807 14.6839C19.7195 14.7865 19.5926 14.9134 19.4949 15.0843L19.3484 15.3382L17.1414 15.3431H14.9344L14.9197 14.474L14.9051 13.5999L14.7586 13.3607C14.534 12.9993 14.2264 12.8333 13.7625 12.8138C13.4402 12.7991 13.3572 12.8138 13.1326 12.931ZM14.0115 13.7074C14.0799 13.7757 14.1482 13.8978 14.1678 13.9808C14.1824 14.0687 14.1971 14.8792 14.1971 15.7874V17.4378L14.324 17.5355C14.3973 17.5941 14.5047 17.638 14.5633 17.638C14.6219 17.638 14.7293 17.5941 14.8025 17.5355C14.9295 17.4378 14.9295 17.4281 14.9295 16.7786V16.1243H17.1268H19.324V19.1517V22.179H17.1268H14.9295V20.4749V18.7659L14.8025 18.6683C14.6365 18.5365 14.49 18.5365 14.324 18.6683L14.1971 18.7659V21.4417C14.1971 22.9163 14.1824 24.1859 14.1678 24.2738C14.0604 24.7962 13.3572 24.7962 13.2498 24.2738C13.2107 24.0736 13.2107 14.181 13.2498 13.9808C13.3279 13.6048 13.7527 13.4486 14.0115 13.7074ZM22.4832 15.3431C22.7225 15.4993 22.7176 15.4212 22.7176 19.1517C22.7176 22.9261 22.7225 22.8236 22.4588 22.9652C22.283 23.0628 20.5154 23.0628 20.3396 22.9652C20.076 22.8236 20.0809 22.931 20.0809 19.1322C20.0809 15.7777 20.0857 15.6068 20.1736 15.4749C20.2225 15.4017 20.3299 15.3236 20.4178 15.2991C20.5008 15.2699 20.9744 15.2552 21.4725 15.2601C22.1658 15.2699 22.4002 15.2845 22.4832 15.3431ZM24.1385 17.0765C26.3699 17.4574 28.2645 19.0882 28.992 21.2513C29.0506 21.4271 29.1434 21.7786 29.1971 22.0325C29.2947 22.4769 29.2996 22.6917 29.3191 26.9251L29.3387 31.3587H28.8504H28.3572V28.0286C28.3572 25.0013 28.3523 24.6937 28.2742 24.6107C28.1717 24.4984 27.8396 24.4935 27.7127 24.6058C27.6297 24.679 27.6248 24.8499 27.6248 28.0238V31.3587H27.1365H26.6531L26.6385 26.8812L26.6238 22.3988L26.492 22.0423C26.0379 20.7923 24.9295 19.845 23.7039 19.6644L23.4744 19.6302V19.1663V18.6976L23.7088 18.7318C25.4422 18.9613 26.9559 20.2845 27.4295 21.9837C27.4832 22.1839 27.5516 22.5745 27.5711 22.8529C27.6248 23.4534 27.6785 23.5462 27.991 23.5462C28.3377 23.5462 28.3768 23.4583 28.3426 22.7796C28.2254 20.387 26.3162 18.3216 23.8943 17.97L23.4744 17.9115V17.4574C23.4744 16.9251 23.4256 16.9544 24.1385 17.0765ZM23.9139 20.5286C24.7488 20.7777 25.4422 21.4661 25.7547 22.3499L25.8914 22.7406L25.9061 27.0472L25.9207 31.3587H25.4324H24.9393L24.9295 26.9984L24.9148 22.6429L24.7781 22.3646C24.5486 21.9007 24.1092 21.5491 23.5379 21.3685C23.4939 21.3587 23.4744 21.2171 23.4744 20.8851V20.4212L23.6111 20.4505C23.6844 20.4652 23.8211 20.5042 23.9139 20.5286Z" fill="#009379"/>
</g>
<defs>
<clipPath id="clip0_2060_3752">
<rect width="25" height="25" fill="white" transform="translate(12.1951 12.511)"/>
</clipPath>
</defs>
</svg>
