<svg width="50" height="51" viewBox="0 0 50 51" fill="none" xmlns="http://www.w3.org/2000/svg">
<path d="M0 24.7062C0 13.2085 0 7.45965 3.57187 3.88779C7.14374 0.315918 12.8926 0.315918 24.3902 0.315918H25.6098C37.1074 0.315918 42.8563 0.315918 46.4281 3.88779C50 7.45965 50 13.2085 50 24.7062V25.9257C50 37.4233 50 43.1722 46.4281 46.744C42.8563 50.3159 37.1074 50.3159 25.6098 50.3159H24.3902C12.8926 50.3159 7.14374 50.3159 3.57187 46.744C0 43.1722 0 37.4233 0 25.9257V24.7062Z" fill="#E5F4F2"/>
<g clip-path="url(#clip0_2060_3763)">
<path d="M18.6356 15.2357C18.2547 15.4359 18.0887 15.6946 18.0643 16.1292C18.035 16.6321 18.1961 16.9593 18.5818 17.1839L18.7869 17.306V18.0335V18.7611H18.4109L18.0301 18.7562L17.8934 18.5413C17.6834 18.2093 17.3807 18.053 16.9559 18.053C16.6727 18.053 16.575 18.0775 16.3943 18.1849C16.1844 18.307 16.0086 18.4974 15.9402 18.6732C15.9109 18.7513 15.8279 18.7611 15.1883 18.7611C14.7147 18.7611 14.3582 18.7904 14.1531 18.8343C13.2498 19.0491 12.449 19.8402 12.2488 20.7142C12.1805 21.0169 12.1805 31.9349 12.2488 32.2376C12.449 33.1116 13.2498 33.9027 14.1531 34.1175C14.3582 34.1614 14.7147 34.1907 15.1883 34.1907C15.8279 34.1907 15.9109 34.2005 15.9402 34.2737C16.0086 34.4544 16.1844 34.6448 16.3943 34.7669C16.575 34.8743 16.6727 34.8987 16.9559 34.8987C17.3807 34.8987 17.6834 34.7425 17.8934 34.4105L18.0301 34.1956L20.8524 34.1907C23.3621 34.1907 23.6697 34.2005 23.6697 34.264C23.6697 34.3079 23.7723 34.4446 23.9041 34.5716C24.2313 34.9036 24.6072 34.9964 25.0565 34.8646C25.2713 34.8011 25.7205 34.3958 25.7205 34.264C25.7205 34.2005 26.0281 34.1907 28.5526 34.1907C31.2088 34.1907 31.3895 34.1956 31.4188 34.2737C31.4871 34.4544 31.6629 34.6448 31.8729 34.7669C32.0535 34.8743 32.1512 34.8987 32.4344 34.8987C32.8592 34.8987 33.1619 34.7425 33.3719 34.4105L33.5086 34.1956L34.2166 34.1907C35.0272 34.1907 35.4031 34.1175 35.8475 33.888C36.4383 33.5755 36.9998 32.8626 37.1414 32.2376C37.2098 31.9349 37.2098 21.0169 37.1414 20.7142C36.9998 20.0892 36.4383 19.3763 35.8475 19.0638C35.4031 18.8343 35.0272 18.7611 34.2166 18.7611L33.5086 18.7562L33.3719 18.5413C33.1619 18.2093 32.8592 18.053 32.4344 18.053C32.1512 18.053 32.0535 18.0775 31.8729 18.1849C31.6629 18.307 31.4871 18.4974 31.4188 18.6732C31.3943 18.7464 31.326 18.7611 30.994 18.7611H30.6033V18.0335V17.306L30.8133 17.1839C30.9305 17.1155 31.0916 16.9642 31.1697 16.8519C31.3016 16.6614 31.3113 16.6126 31.3113 16.2171C31.3113 15.8216 31.3016 15.7777 31.1649 15.5823C31.0721 15.4505 30.9207 15.3187 30.7547 15.2357L30.4959 15.0989H28.616C27.2733 15.0989 26.6727 15.1185 26.5311 15.1575C26.2674 15.2357 25.9061 15.597 25.8279 15.8607C25.6961 16.3099 25.7889 16.6859 26.1209 17.013C26.2479 17.1448 26.3846 17.2474 26.4285 17.2474C26.492 17.2474 26.5018 17.3548 26.5018 18.0042V18.7611H26.1111C25.7889 18.7611 25.7205 18.7464 25.7205 18.6878C25.7205 18.556 25.2713 18.1507 25.0565 18.0872C24.6072 17.9554 24.2313 18.0482 23.9041 18.3802C23.7723 18.5071 23.6697 18.6439 23.6697 18.6878C23.6697 18.7464 23.6014 18.7611 23.2791 18.7611H22.8885V18.0042C22.8885 17.3548 22.8983 17.2474 22.9617 17.2474C23.0936 17.2474 23.4988 16.7982 23.5623 16.5833C23.6942 16.139 23.6014 15.7581 23.2791 15.4407C23.1473 15.3089 22.9813 15.1966 22.8592 15.1575C22.7176 15.1185 22.117 15.0989 20.7742 15.0989H18.8943L18.6356 15.2357ZM22.7176 16.0023C22.7859 16.0657 22.8397 16.1634 22.8397 16.222C22.8397 16.2757 22.7859 16.3782 22.7176 16.4417L22.6004 16.5638H20.8133C19.0945 16.5638 19.0262 16.5589 18.9334 16.4661C18.8797 16.4124 18.8358 16.305 18.8358 16.222C18.8358 16.139 18.8797 16.0316 18.9334 15.9779C19.0262 15.8851 19.0945 15.8802 20.8133 15.8802H22.6004L22.7176 16.0023ZM30.4568 15.9779C30.5106 16.0316 30.5545 16.139 30.5545 16.222C30.5545 16.305 30.5106 16.4124 30.4568 16.4661C30.3641 16.5589 30.2957 16.5638 28.577 16.5638H26.7899L26.6727 16.4417C26.6043 16.3782 26.5506 16.2757 26.5506 16.222C26.5506 16.1634 26.6043 16.0657 26.6727 16.0023L26.7899 15.8802H28.577C30.2957 15.8802 30.3641 15.8851 30.4568 15.9779ZM22.1072 18.053V18.7611H20.8133H19.5193V18.053V17.345H20.8133H22.1072V18.053ZM29.8709 18.053V18.7611H28.577H27.283V18.053V17.345H28.577H29.8709V18.053ZM17.1268 18.8587C17.2977 18.9515 17.3221 19.1663 17.3221 20.7435V22.2718L17.449 22.3695C17.5223 22.428 17.6297 22.472 17.6883 22.472C17.7469 22.472 17.8543 22.428 17.9276 22.3695L18.0545 22.2718V20.9046V19.5423H20.8133H23.5721V26.4759V33.4095H20.8133H18.0545V28.3948V23.3802L17.9471 23.2679C17.8152 23.1263 17.576 23.1214 17.4295 23.2532L17.3221 23.3558V28.556C17.3221 34.2054 17.327 34.054 17.0584 34.1224C16.9949 34.137 16.8924 34.137 16.8338 34.1175C16.5799 34.0394 16.5897 34.303 16.5897 26.4808C16.5897 21.5443 16.6043 19.1614 16.6385 19.0687C16.7264 18.8343 16.9217 18.7464 17.1268 18.8587ZM24.9149 18.932L25.0369 19.0491V26.4759V33.9027L24.9149 34.0198C24.7635 34.1761 24.6268 34.1761 24.4754 34.0198L24.3533 33.9027V26.4759V19.0491L24.4754 18.932C24.6268 18.7757 24.7635 18.7757 24.9149 18.932ZM32.6053 18.8587C32.6541 18.8831 32.7176 18.9759 32.7469 19.0589C32.7859 19.1712 32.8006 21.305 32.8006 26.4857C32.8006 34.3861 32.8104 34.054 32.5369 34.1224C32.3514 34.1663 32.2098 34.098 32.1365 33.9173C32.0828 33.7904 32.0682 33.429 32.0682 32.2279C32.0682 30.7337 32.0682 30.7044 31.9608 30.5921C31.8289 30.4505 31.5897 30.4456 31.4432 30.5775C31.3358 30.6751 31.3358 30.7044 31.3358 32.0423V33.4095H28.577H25.8182V26.4759V19.5423H28.577H31.3358V24.5667V29.596L31.4627 29.6937C31.6287 29.8255 31.7752 29.8255 31.9412 29.6937L32.0682 29.596V24.4007C32.0682 20.9095 32.0828 19.1614 32.117 19.0687C32.2049 18.8343 32.4002 18.7464 32.6053 18.8587ZM15.8572 26.4759V33.4095H15.491H15.1248V26.4759V19.5423H15.491H15.8572V26.4759ZM34.2654 26.4759V33.4095H33.8992H33.533V26.4759V19.5423H33.8992H34.2654V26.4759ZM14.3924 26.4759C14.3924 32.1986 14.3826 33.3607 14.3289 33.3607C14.2899 33.3607 14.1287 33.2923 13.9676 33.2142C13.4354 32.9456 13.0643 32.428 12.9764 31.8128C12.9129 31.3685 12.9129 21.5833 12.9764 21.139C13.0643 20.5238 13.4354 20.0062 13.9676 19.7376C14.1287 19.6595 14.2899 19.5911 14.3289 19.5911C14.3826 19.5911 14.3924 20.7532 14.3924 26.4759ZM35.4227 19.7376C35.9549 20.0062 36.326 20.5238 36.4139 21.139C36.4432 21.3392 36.4627 23.4632 36.4627 26.4759C36.4627 29.4886 36.4432 31.6126 36.4139 31.8128C36.326 32.428 35.9549 32.9456 35.4227 33.2142C35.2615 33.2923 35.1004 33.3607 35.0613 33.3607C35.0076 33.3607 34.9979 32.1986 34.9979 26.4759C34.9979 20.7532 35.0076 19.5911 35.0613 19.5911C35.1004 19.5911 35.2615 19.6595 35.4227 19.7376Z" fill="#009379"/>
</g>
<defs>
<clipPath id="clip0_2060_3763">
<rect width="25" height="25" fill="white" transform="translate(12.1951 12.511)"/>
</clipPath>
</defs>
</svg>
