<svg width="50" height="51" viewBox="0 0 50 51" fill="none" xmlns="http://www.w3.org/2000/svg">
<path d="M0 24.7062C0 13.2085 0 7.45965 3.57187 3.88779C7.14374 0.315918 12.8926 0.315918 24.3902 0.315918H25.6098C37.1074 0.315918 42.8563 0.315918 46.4281 3.88779C50 7.45965 50 13.2085 50 24.7062V25.9257C50 37.4233 50 43.1722 46.4281 46.744C42.8563 50.3159 37.1074 50.3159 25.6098 50.3159H24.3902C12.8926 50.3159 7.14374 50.3159 3.57187 46.744C0 43.1722 0 37.4233 0 25.9257V24.7062Z" fill="#E5F4F2"/>
<g clip-path="url(#clip0_2060_3768)">
<path d="M24.2606 12.9994C23.533 13.1947 22.7908 13.6488 22.327 14.1908L22.0975 14.4593L18.6258 14.474L15.1492 14.4886L14.8318 14.6497C14.0408 15.0453 13.4305 15.8656 13.0057 17.0912C12.6785 18.0384 12.6102 18.5218 12.6102 19.9329C12.6102 21.3441 12.6785 21.8275 13.0057 22.7747C13.4305 24.0003 14.0408 24.8206 14.8318 25.2162L15.1492 25.3773L18.6258 25.3919L22.0975 25.4066L22.327 25.6751C22.7957 26.222 23.5428 26.6761 24.2801 26.8665C24.6317 26.9544 24.827 26.9642 26.8045 26.9642H28.9481L28.9188 27.1449C28.8504 27.5501 28.6746 28.0384 28.4109 28.5511L28.1375 29.0882L27.9422 29.0199C27.6541 28.9222 27.0438 28.8929 26.7361 28.9662C26.3895 29.0492 26.033 29.2396 25.5106 29.6253C25.0565 29.9574 24.8563 30.0404 24.4998 30.0404C24.1434 30.0404 23.9432 29.9574 23.4891 29.6204C23.2547 29.4495 22.8934 29.2249 22.6932 29.1224C22.3367 28.9466 22.3172 28.9417 21.7654 28.9417C21.2137 28.9417 21.1942 28.9466 20.8377 29.1224C20.6375 29.2249 20.2762 29.4495 20.0418 29.6204C19.5877 29.9574 19.3875 30.0404 19.0311 30.0404C18.6746 30.0404 18.4744 29.9574 18.0203 29.6204C17.7859 29.4495 17.4246 29.2249 17.2244 29.1224C16.868 28.9466 16.8484 28.9417 16.2967 28.9417C15.7693 28.9417 15.7156 28.9515 15.4178 29.0931C15.242 29.1761 14.91 29.3812 14.6854 29.5521C14.4559 29.723 14.1824 29.8988 14.075 29.9476C13.8065 30.0697 13.3133 30.0697 13.0301 29.9427C12.9129 29.889 12.8104 29.8451 12.8055 29.8451C12.7957 29.8451 12.6834 29.9915 12.5565 30.1673L12.327 30.4945L12.4442 30.5824C12.8201 30.8656 13.699 30.9583 14.2606 30.7679C14.5682 30.6654 14.6707 30.6019 15.3348 30.1234C15.7449 29.8304 15.95 29.7474 16.2967 29.7474C16.6531 29.7474 16.8533 29.8304 17.3074 30.1673C17.5418 30.3382 17.9031 30.5628 18.1033 30.6654C18.4598 30.8412 18.4793 30.846 19.0311 30.846C19.5828 30.846 19.6024 30.8412 19.9588 30.6654C20.159 30.5628 20.5203 30.3382 20.7547 30.1624C21.243 29.806 21.4676 29.7279 21.8875 29.762C22.2488 29.7865 22.3367 29.8304 22.9813 30.304C23.5818 30.7435 23.9188 30.8704 24.4998 30.8704C25.0809 30.8704 25.4178 30.7435 26.0184 30.304C26.2967 30.099 26.5897 29.8988 26.6727 29.8597C26.8973 29.7425 27.3758 29.723 27.659 29.8158L27.908 29.8988L27.8641 30.0794C27.8397 30.1771 27.8201 30.3578 27.8201 30.4798C27.8152 30.9046 27.8152 30.9046 27.3807 30.8802C26.7166 30.8412 26.3016 30.9974 25.5106 31.5785C25.0223 31.9349 24.7977 32.013 24.3777 31.9788C24.0262 31.9544 23.9139 31.9007 23.3768 31.5003C22.6541 30.9681 22.283 30.8412 21.5848 30.8851C21.0916 30.9144 20.701 31.0902 20.0418 31.5785C19.5535 31.9349 19.3289 32.013 18.909 31.9788C18.5574 31.9544 18.4451 31.9007 17.908 31.5003C17.1902 30.9681 16.8143 30.8412 16.116 30.8851C15.6229 30.9144 15.2762 31.0658 14.6854 31.5052C14.4559 31.6761 14.1824 31.8519 14.075 31.9007C13.8065 32.0228 13.3133 32.0228 13.0301 31.8958C12.9129 31.8421 12.8104 31.7982 12.8055 31.7982C12.7957 31.7982 12.6834 31.9447 12.5565 32.1204L12.327 32.4476L12.4442 32.5355C12.8201 32.8187 13.699 32.9115 14.2606 32.721C14.5682 32.6185 14.6707 32.555 15.3348 32.0765C15.7449 31.7835 15.95 31.7005 16.2967 31.7005C16.6531 31.7005 16.8533 31.7835 17.3074 32.1204C17.5418 32.2913 17.9031 32.516 18.1033 32.6185C18.4598 32.7943 18.4793 32.7992 19.0311 32.7992C19.5828 32.7992 19.6024 32.7943 19.9588 32.6185C20.159 32.516 20.5203 32.2913 20.7547 32.1204C21.2088 31.7835 21.409 31.7005 21.7654 31.7005C22.1219 31.7005 22.3221 31.7835 22.7762 32.1204C23.0106 32.2913 23.3719 32.516 23.5721 32.6185C23.9285 32.7943 23.9481 32.7992 24.4998 32.7992C25.0516 32.7992 25.0711 32.7943 25.4276 32.6185C25.6277 32.516 25.9891 32.2913 26.2234 32.1204C26.6776 31.7835 26.8777 31.7005 27.2342 31.7005C27.5906 31.7005 27.7908 31.7835 28.2449 32.1204C28.4793 32.2913 28.8406 32.516 29.0408 32.6185C29.3973 32.7943 29.4168 32.7992 29.9686 32.7992C30.5203 32.7992 30.5399 32.7943 30.8963 32.6185C31.0965 32.516 31.4578 32.2913 31.6922 32.1156C32.1805 31.7591 32.4051 31.681 32.825 31.7152C33.1863 31.7396 33.2742 31.7835 33.9139 32.2523C34.5779 32.7406 34.7391 32.7992 35.4129 32.7992C35.9207 32.7992 35.9647 32.7894 36.2527 32.6429C36.4188 32.555 36.6824 32.3646 36.8387 32.2181L37.1219 31.9495L36.8192 31.6468L36.5164 31.3441L36.2186 31.6175C36.0526 31.7689 35.9012 31.8958 35.8768 31.8958C35.8377 31.8958 35.4715 31.1732 35.4178 30.9876C35.3885 30.8949 35.408 30.8802 35.6717 30.8607C36.0428 30.8265 36.4725 30.6068 36.8387 30.265L37.1219 29.9964L36.8192 29.6937L36.5164 29.391L36.2186 29.6644C35.9158 29.9476 35.6668 30.0599 35.4129 30.0306C35.2713 30.016 35.2664 30.0111 35.2322 29.6742C35.1932 29.2396 35.0955 28.9564 34.8026 28.4046C34.3387 27.5404 34.1483 26.847 34.0945 25.7923C34.0408 24.7669 33.8504 24.0736 33.4354 23.3851L33.2352 23.0579L33.3865 22.4622C33.6307 21.4857 33.6942 20.846 33.6649 19.6156C33.6453 18.7074 33.6209 18.4486 33.5086 17.931C32.991 15.4554 31.7215 13.6634 30.0565 13.0579L29.7 12.9261L27.1609 12.9163C24.7781 12.9066 24.5975 12.9115 24.2606 12.9994ZM26.4285 14.0247C25.3738 15.0501 24.6463 16.6517 24.3777 18.5169C24.285 19.1908 24.285 20.6751 24.3777 21.349C24.6463 23.224 25.3738 24.8158 26.4383 25.846L26.7996 26.1976L25.7352 26.1732C24.5633 26.1439 24.3289 26.0951 23.7674 25.7777C23.4109 25.5726 22.8055 24.9915 22.5076 24.557C21.6629 23.3265 21.2283 21.764 21.2283 19.9329C21.2283 18.4046 21.492 17.1986 22.0877 16.012C22.6053 14.9867 23.4549 14.1419 24.2606 13.849C24.5731 13.7367 25.0027 13.6976 25.9451 13.6878L26.785 13.6829L26.4285 14.0247ZM29.6805 13.8099C30.9647 14.1859 32.0975 15.6849 32.6004 17.6771C32.9129 18.9027 32.9373 20.4994 32.6736 21.8617C32.6297 22.0765 32.5858 22.262 32.5809 22.2669C32.5711 22.2767 32.4344 22.1888 32.2781 22.0765C32.1219 21.9593 31.9852 21.8617 31.9803 21.8568C31.9705 21.847 31.9998 21.5785 32.0438 21.2513C32.1121 20.7777 32.1268 20.4554 32.1024 19.6253C32.0731 18.4632 31.9949 17.9945 31.702 17.1156C31.2918 15.8851 30.6717 15.0501 29.8709 14.6497C29.5682 14.4935 29.5291 14.4886 28.992 14.4886C28.4549 14.4886 28.4158 14.4935 28.1131 14.6497C27.3221 15.0453 26.7117 15.8656 26.2869 17.0912C25.9549 18.0482 25.8914 18.5218 25.8914 19.9574C25.8963 21.0902 25.9061 21.2806 26.0037 21.7396C26.3602 23.3753 27.0535 24.6058 27.8934 25.0843C28.4744 25.4115 28.6697 25.597 28.826 25.9681L28.9041 26.1488L28.6649 26.1195C27.659 26.0023 26.6336 25.1234 25.9793 23.8148C25.4031 22.6771 25.1346 21.432 25.1346 19.9329C25.1346 18.4046 25.3983 17.1986 25.994 16.012C26.5311 14.9427 27.4051 14.098 28.2547 13.8245C28.6063 13.7122 29.3192 13.7025 29.6805 13.8099ZM21.4041 15.5482C20.9793 16.3343 20.5643 17.6624 20.4471 18.6146C20.3836 19.1566 20.3836 20.7191 20.452 21.2757C20.5643 22.1986 21.0135 23.6292 21.4285 24.3665L21.575 24.6253L18.533 24.6107L15.491 24.596L15.2225 24.4691C14.5779 24.1615 13.9578 23.1995 13.6649 22.057C13.4842 21.3392 13.4158 20.7679 13.4158 19.9329C13.4158 18.4828 13.699 17.2962 14.2654 16.3538C14.6268 15.7581 15.0711 15.387 15.5301 15.2943C15.6424 15.2747 17.0486 15.2552 18.6502 15.2503L21.5701 15.2454L21.4041 15.5482ZM29.5047 15.4115C30.1199 15.6995 30.7498 16.6859 31.0379 17.8089C31.2186 18.5267 31.2869 19.098 31.2869 19.9329C31.2869 20.6068 31.2283 21.3245 31.1697 21.388C31.16 21.3929 30.9598 21.3441 30.7205 21.2708C30.3592 21.1634 30.1639 21.139 29.5535 21.1195C29.0311 21.1048 28.7283 21.1195 28.5037 21.1683L28.1815 21.2367L28.201 20.2162C28.2303 18.7757 28.1082 17.9554 27.6932 16.847L27.5174 16.3734L27.6248 16.2122C27.8397 15.8997 28.2401 15.5238 28.4793 15.4115C28.8065 15.2552 29.1776 15.2552 29.5047 15.4115ZM27.1805 18.014C27.3367 18.6927 27.3807 19.0736 27.3807 19.9085C27.3807 20.5579 27.2879 21.5589 27.2244 21.6126C27.1512 21.681 26.8924 21.7787 26.8729 21.7494C26.8631 21.7298 26.8143 21.4808 26.7752 21.1927C26.6727 20.5238 26.6727 19.2738 26.7703 18.6683C26.868 18.0872 26.9901 17.5892 27.0389 17.5892C27.0633 17.5892 27.1268 17.7796 27.1805 18.014ZM30.4324 22.057C31.326 22.3206 32.1268 22.9066 32.6199 23.6732C33.0496 24.3372 33.2108 24.8744 33.2645 25.8412C33.3279 27.0081 33.5184 27.721 34.0164 28.7122C34.3631 29.391 34.3875 29.4935 34.4608 30.2845C34.4998 30.7484 34.5535 31.0072 34.6756 31.3734C34.7635 31.6322 34.8221 31.847 34.8026 31.847C34.783 31.847 34.5779 31.7005 34.3436 31.5247C33.6111 30.973 33.2303 30.8412 32.5223 30.8851C32.0291 30.9144 31.6385 31.0902 30.9793 31.5736C30.5154 31.9154 30.325 31.9935 29.9442 31.9935C29.6072 31.9886 29.4022 31.9056 28.9676 31.598L28.5965 31.3343L28.6307 30.7972C28.6746 30.0599 28.7869 29.6644 29.158 28.932C29.6463 27.9701 29.7733 27.5013 29.7733 26.6566C29.7733 26.2513 29.7488 26.0609 29.6707 25.8314C29.4803 25.2601 29.0604 24.7572 28.5672 24.5081C28.074 24.2542 27.576 23.6829 27.283 23.0384C27.2 22.8626 27.1365 22.6966 27.1365 22.6722C27.1365 22.5892 27.8201 22.2328 28.2352 22.1009C28.8992 21.891 29.7879 21.8714 30.4324 22.057Z" fill="#009379"/>
<path d="M15.7449 33.2679C15.4715 33.3314 15.1151 33.5267 14.6707 33.8587C14.451 34.0199 14.1824 34.1956 14.075 34.2445C13.8065 34.3665 13.3133 34.3665 13.0301 34.2396C12.9129 34.1859 12.8104 34.1419 12.8055 34.1419C12.7957 34.1419 12.6834 34.2884 12.5565 34.4642L12.327 34.7913L12.4442 34.8792C12.8201 35.1624 13.699 35.2552 14.2606 35.0648C14.5682 34.9622 14.6707 34.8988 15.3348 34.4203C15.7449 34.1273 15.95 34.0443 16.2967 34.0443C16.6531 34.0443 16.8533 34.1273 17.3074 34.4642C17.5418 34.6351 17.9031 34.8597 18.1033 34.9622C18.4598 35.138 18.4793 35.1429 19.0311 35.1429C19.5828 35.1429 19.6024 35.138 19.9588 34.9622C20.159 34.8597 20.5203 34.6351 20.7547 34.4642C21.2088 34.1273 21.409 34.0443 21.7654 34.0443C22.1219 34.0443 22.3221 34.1273 22.7762 34.4642C23.0106 34.6351 23.3719 34.8597 23.5721 34.9622C23.9285 35.138 23.9481 35.1429 24.4998 35.1429C25.0516 35.1429 25.0711 35.138 25.4276 34.9622C25.6277 34.8597 25.9891 34.6351 26.2234 34.4642C26.6776 34.1273 26.8777 34.0443 27.2342 34.0443C27.5906 34.0443 27.7908 34.1273 28.2449 34.4642C28.4793 34.6351 28.8406 34.8597 29.0408 34.9622C29.3973 35.138 29.4168 35.1429 29.9686 35.1429C30.5203 35.1429 30.5399 35.138 30.8963 34.9622C31.0965 34.8597 31.4578 34.6351 31.6922 34.4593C32.1805 34.1029 32.4051 34.0247 32.825 34.0589C33.1863 34.0833 33.2742 34.1273 33.9139 34.596C34.5779 35.0843 34.7391 35.1429 35.4129 35.1429C35.9207 35.1429 35.9647 35.1331 36.2527 34.9867C36.4188 34.8988 36.6824 34.7083 36.8387 34.5619L37.1219 34.2933L36.8192 33.9906L36.5164 33.6878L36.2283 33.9515C35.9207 34.2396 35.6863 34.3372 35.3348 34.3372C35.0516 34.3324 34.7879 34.2103 34.3143 33.849C33.6209 33.3216 33.2254 33.1849 32.5223 33.2288C32.0291 33.2581 31.6385 33.4339 30.9793 33.9222C30.491 34.2787 30.2664 34.3568 29.8465 34.3226C29.4949 34.2982 29.3826 34.2445 28.8455 33.8441C28.1229 33.3119 27.7518 33.1849 27.0535 33.2288C26.5604 33.2581 26.1697 33.4339 25.5106 33.9222C25.0223 34.2787 24.7977 34.3568 24.3777 34.3226C24.0262 34.2982 23.9139 34.2445 23.3768 33.8441C22.6541 33.3119 22.283 33.1849 21.5848 33.2288C21.0916 33.2581 20.701 33.4339 20.0418 33.9222C19.5535 34.2787 19.3289 34.3568 18.909 34.3226C18.5574 34.2982 18.4451 34.2445 17.908 33.8441C17.4393 33.4974 17.1414 33.3363 16.8338 33.2679C16.5701 33.2044 16.0037 33.2093 15.7449 33.2679Z" fill="#009379"/>
<path d="M15.7449 35.221C15.4715 35.2845 15.1151 35.4798 14.6707 35.8119C14.451 35.973 14.1824 36.1488 14.075 36.1976C13.8065 36.3197 13.3133 36.3197 13.0301 36.1927C12.9129 36.139 12.8104 36.0951 12.8055 36.0951C12.7957 36.0951 12.6834 36.2415 12.5565 36.4173L12.327 36.7445L12.4442 36.8324C12.8201 37.1156 13.699 37.2083 14.2606 37.0179C14.5682 36.9154 14.6707 36.8519 15.3348 36.3734C15.7449 36.0804 15.95 35.9974 16.2967 35.9974C16.6531 35.9974 16.8533 36.0804 17.3074 36.4173C17.5418 36.5882 17.9031 36.8128 18.1033 36.9154C18.4598 37.0912 18.4793 37.096 19.0311 37.096C19.5828 37.096 19.6024 37.0912 19.9588 36.9154C20.159 36.8128 20.5203 36.5882 20.7547 36.4173C21.2088 36.0804 21.409 35.9974 21.7654 35.9974C22.1219 35.9974 22.3221 36.0804 22.7762 36.4173C23.0106 36.5882 23.3719 36.8128 23.5721 36.9154C23.9285 37.0912 23.9481 37.096 24.4998 37.096C25.0516 37.096 25.0711 37.0912 25.4276 36.9154C25.6277 36.8128 25.9891 36.5882 26.2234 36.4173C26.6776 36.0804 26.8777 35.9974 27.2342 35.9974C27.5906 35.9974 27.7908 36.0804 28.2449 36.4173C28.4793 36.5882 28.8406 36.8128 29.0408 36.9154C29.3973 37.0912 29.4168 37.096 29.9686 37.096C30.5203 37.096 30.5399 37.0912 30.8963 36.9154C31.0965 36.8128 31.4578 36.5882 31.6922 36.4124C32.1805 36.056 32.4051 35.9779 32.825 36.012C33.1863 36.0365 33.2742 36.0804 33.9139 36.5492C34.5779 37.0374 34.7391 37.096 35.4129 37.096C35.9207 37.096 35.9647 37.0863 36.2527 36.9398C36.4188 36.8519 36.6824 36.6615 36.8387 36.515L37.1219 36.2464L36.8192 35.9437L36.5164 35.641L36.2283 35.9046C35.9207 36.1927 35.6863 36.2904 35.3348 36.2904C35.0516 36.2855 34.7879 36.1634 34.3143 35.8021C33.6209 35.2747 33.2254 35.138 32.5223 35.182C32.0291 35.2113 31.6385 35.387 30.9793 35.8753C30.491 36.2318 30.2664 36.3099 29.8465 36.2757C29.4949 36.2513 29.3826 36.1976 28.8455 35.7972C28.1229 35.265 27.7518 35.138 27.0535 35.182C26.5604 35.2113 26.1697 35.387 25.5106 35.8753C25.0223 36.2318 24.7977 36.3099 24.3777 36.2757C24.0262 36.2513 23.9139 36.1976 23.3768 35.7972C22.6541 35.265 22.283 35.138 21.5848 35.182C21.0916 35.2113 20.701 35.387 20.0418 35.8753C19.5535 36.2318 19.3289 36.3099 18.909 36.2757C18.5574 36.2513 18.4451 36.1976 17.908 35.7972C17.4393 35.4505 17.1414 35.2894 16.8338 35.221C16.5701 35.1576 16.0037 35.1624 15.7449 35.221Z" fill="#009379"/>
</g>
<defs>
<clipPath id="clip0_2060_3768">
<rect width="25" height="25" fill="white" transform="translate(12.1951 12.511)"/>
</clipPath>
</defs>
</svg>
