<svg width="82" height="82" viewBox="0 0 82 82" fill="none" xmlns="http://www.w3.org/2000/svg">
<path d="M0 40C0 21.1438 0 11.7157 5.85786 5.85786C11.7157 0 21.1438 0 40 0H42C60.8562 0 70.2843 0 76.1421 5.85786C82 11.7157 82 21.1438 82 40V42C82 60.8562 82 70.2843 76.1421 76.1421C70.2843 82 60.8562 82 42 82H40C21.1438 82 11.7157 82 5.85786 76.1421C0 70.2843 0 60.8562 0 42V40Z" fill="#264190" fill-opacity="0.5"/>
<g clip-path="url(#clip0_2132_2662)">
<path d="M40.5078 20.1805C40.352 20.3445 40.3438 20.4594 40.3438 21.8867C40.3438 23.3141 40.352 23.4289 40.5078 23.593C40.6309 23.716 40.7785 23.7734 41 23.7734C41.2215 23.7734 41.3691 23.716 41.4922 23.593C41.648 23.4289 41.6562 23.3141 41.6562 21.8867C41.6562 20.3938 41.648 20.3527 41.4676 20.1805C41.2133 19.9344 40.7375 19.9344 40.5078 20.1805Z" fill="white"/>
<path d="M29.0398 24.9465C28.6461 25.3648 28.8101 25.6766 30.0324 26.866C30.9183 27.7355 31.0004 27.793 31.3039 27.793C31.5664 27.793 31.673 27.7438 31.8043 27.5797C32.157 27.1285 32.0258 26.8824 30.8035 25.6766C29.9258 24.8152 29.8519 24.7578 29.5402 24.7578C29.3105 24.7578 29.1629 24.807 29.0398 24.9465Z" fill="white"/>
<path d="M51.1965 25.6766C49.9742 26.8824 49.8429 27.1285 50.1957 27.5797C50.3269 27.7438 50.4336 27.793 50.6961 27.793C50.9996 27.793 51.0816 27.7355 51.9675 26.866C53.1898 25.6766 53.3211 25.4223 52.9683 24.9711C52.8371 24.807 52.7304 24.7578 52.4679 24.7578C52.148 24.7578 52.0824 24.807 51.1965 25.6766Z" fill="white"/>
<path d="M38.982 26.1934C34.5687 26.9891 31.0003 30.6805 30.2867 35.1758C30.1882 35.8238 30.1636 36.3324 30.1964 37.2676C30.2457 38.5555 30.3605 39.2199 30.7132 40.3027C31.2957 42.0664 32.0832 43.2723 33.6582 44.8145C35.5859 46.7012 35.7418 47.0703 35.8238 49.9414L35.873 51.8691L36.1191 52.3039C36.2503 52.5418 36.48 52.8453 36.6277 52.9766L36.8984 53.2145V54.9617C36.8984 56.8156 36.964 57.4637 37.2019 57.9559C37.3824 58.3496 37.8992 58.85 38.2519 58.973C38.5144 59.0715 38.5226 59.0797 38.5554 59.6621C38.6457 61.0813 39.6136 62 41 62C42.3863 62 43.3543 61.0813 43.4445 59.6621C43.4773 59.0797 43.4855 59.0715 43.748 58.973C44.1007 58.85 44.6175 58.3496 44.798 57.9559C45.0359 57.4637 45.1015 56.8156 45.1015 54.9617V53.2145L45.3722 52.9766C45.5199 52.8453 45.7496 52.5418 45.8808 52.3039L46.1269 51.8691L46.1761 49.9414C46.2582 47.0621 46.3812 46.7668 48.2679 44.8965C49.5804 43.5922 50.1218 42.8785 50.7289 41.6562C51.2539 40.5898 51.746 38.941 51.746 38.252C51.746 37.9648 51.4015 37.6367 51.1062 37.6367C50.6796 37.6367 50.5156 37.8582 50.3515 38.6621C49.9085 40.8277 49.1457 42.132 47.2343 44.0352C46.1433 45.1262 45.9136 45.4051 45.6183 45.9629C45.0195 47.1113 44.9293 47.5871 44.88 49.6789C44.8308 51.7215 44.798 51.8445 44.1992 52.1891C43.9203 52.3531 43.789 52.3613 41 52.3613C38.2109 52.3613 38.0796 52.3531 37.8007 52.1891C37.6449 52.0988 37.4316 51.902 37.3332 51.7461C37.1527 51.4918 37.1445 51.3934 37.1445 50.1137C37.1445 48.4156 37.0378 47.5707 36.7261 46.7176C36.3898 45.7742 35.8812 45.0852 34.7984 44.0762C33.7156 43.059 33.0675 42.2387 32.5343 41.2051C31.8289 39.8105 31.4843 38.416 31.4843 36.8902C31.4843 32.3293 34.6918 28.4246 39.1871 27.5059C40.0402 27.3254 40.1796 27.227 40.1796 26.7758C40.1796 26.177 39.8761 26.0293 38.982 26.1934ZM43.789 54.3301V55.0273H41H38.2109V54.3301V53.6328H41H43.789V54.3301ZM43.7644 56.7664C43.6988 57.2668 43.5183 57.5539 43.1246 57.759C42.8785 57.8902 42.6324 57.8984 40.8605 57.882L38.8753 57.8574L38.6293 57.6195C38.3668 57.3734 38.2109 56.9715 38.2109 56.5613V56.3398H41.0082H43.8136L43.7644 56.7664ZM42.1484 59.5063C42.1484 59.8754 41.8777 60.3758 41.5742 60.548C41.2789 60.7285 40.721 60.7285 40.4257 60.548C40.1222 60.3758 39.8515 59.8754 39.8515 59.5063V59.2109H41H42.1484V59.5063Z" fill="white"/>
<path d="M42.2305 26.1278C41.9434 26.2344 41.8203 26.4313 41.8203 26.7758C41.8203 27.227 41.9598 27.3254 42.8457 27.5059C45.7004 28.0965 48.0957 29.9094 49.4492 32.4934C49.8758 33.3137 50.3023 34.5442 50.3926 35.2496C50.4992 36.0207 51.0816 36.3407 51.541 35.8731C51.7789 35.6434 51.7871 35.4711 51.6148 34.618C50.8027 30.6559 47.6691 27.3664 43.748 26.3657C42.8867 26.1442 42.4027 26.0703 42.2305 26.1278Z" fill="white"/>
<path d="M40.4503 29.3433C39.4496 29.5976 38.7359 30.5902 38.7933 31.6238L38.8179 31.9929L38.3421 32.2636L37.8664 32.5343L37.5793 32.3456C37.1609 32.0503 36.7753 31.9519 36.2175 31.9929C35.3562 32.0503 34.6671 32.5179 34.3308 33.2808C34.1011 33.8058 34.1093 34.6015 34.3554 35.1183C34.5523 35.5366 35.1675 36.1355 35.4793 36.2093C35.6515 36.2585 35.6679 36.2995 35.6679 36.8491V37.4398L35.389 37.5382C35.0527 37.6613 34.4703 38.2683 34.298 38.6866C34.1175 39.1214 34.1339 39.9745 34.3308 40.4257C34.8722 41.648 36.48 42.1238 37.571 41.3773L37.8664 41.1804L38.3257 41.4429L38.7933 41.7054L38.8097 42.2796C38.8507 43.3378 39.5152 44.1417 40.5488 44.3714C41.4675 44.5765 42.4519 44.1335 42.9195 43.2968C43.1246 42.9359 43.1738 42.739 43.1902 42.2796L43.2066 41.7054L43.6742 41.4429L44.1336 41.1804L44.4289 41.3773C45.5199 42.1238 47.1277 41.648 47.6691 40.4257C47.8988 39.9089 47.8906 39.1132 47.6445 38.5964C47.4476 38.1781 46.8324 37.5792 46.5207 37.5054C46.3484 37.4562 46.332 37.4152 46.332 36.8573C46.332 36.2995 46.3484 36.2585 46.5207 36.2093C46.8324 36.1355 47.4476 35.5366 47.6445 35.1183C47.8906 34.6015 47.8988 33.8058 47.6691 33.2808C47.3328 32.5179 46.6437 32.0503 45.7824 31.9929C45.2246 31.9519 44.839 32.0503 44.4207 32.3456L44.1336 32.5343L43.6742 32.2718L43.2066 32.0093L43.182 31.4351C43.1574 30.582 42.78 29.9503 42.0828 29.573C41.6398 29.3351 40.9015 29.2284 40.4503 29.3433ZM41.3609 30.705C41.648 30.8445 41.9023 31.2054 41.9023 31.4843C41.9023 31.9191 41.4347 32.3866 41 32.3866C40.5652 32.3866 40.0976 31.9191 40.0976 31.4843C40.0976 31.2136 40.3519 30.8445 40.6226 30.7132C40.9425 30.5491 41.0328 30.5491 41.3609 30.705ZM40.2699 33.5761C40.9097 33.8058 41.7464 33.6909 42.2961 33.2972L42.5175 33.1413L42.9687 33.4038L43.4199 33.6663L43.4691 34.2816C43.5347 35.2167 43.9777 35.8812 44.7324 36.2011C45.0195 36.3159 45.0195 36.3159 45.0195 36.8491C45.0195 37.3823 45.0195 37.3906 44.7488 37.5054C44.355 37.6695 43.8875 38.1042 43.6906 38.4898C43.5757 38.7031 43.4937 39.0476 43.4691 39.4331L43.4199 40.0484L42.9769 40.3027L42.5339 40.5652L42.1238 40.3109C41.7464 40.0812 41.6562 40.0566 41 40.0566C40.3437 40.0566 40.2535 40.0812 39.8761 40.3109L39.466 40.5652L39.023 40.3027L38.58 40.0484L38.5308 39.4331C38.5062 39.0476 38.4242 38.7031 38.3093 38.4898C38.1125 38.1042 37.6449 37.6695 37.2511 37.5054C36.9804 37.3906 36.9804 37.3823 36.9804 36.8573C36.9804 36.3323 36.9804 36.3241 37.2511 36.2093C37.6449 36.0452 38.1125 35.6105 38.3093 35.2249C38.4242 35.0116 38.5062 34.6671 38.5308 34.2816L38.58 33.6663L39.0312 33.4038L39.4824 33.1413L39.7039 33.2972C39.8269 33.3874 40.0812 33.5105 40.2699 33.5761ZM36.9476 33.5679C37.325 33.9452 37.3414 34.421 36.9886 34.7656C36.8574 34.8968 36.6523 35.0281 36.521 35.0609C36.2011 35.1429 35.75 34.8804 35.5613 34.5113C35.43 34.2323 35.43 34.1831 35.5449 33.8878C35.7992 33.248 36.4718 33.0921 36.9476 33.5679ZM46.0859 33.4284C46.7011 33.7894 46.6519 34.6343 45.9875 34.9788C45.4461 35.2577 44.7734 34.8148 44.7734 34.1749C44.7734 33.9124 44.8308 33.7894 45.0523 33.5679C45.3722 33.248 45.7086 33.1988 46.0859 33.4284ZM36.7343 38.7441C37.0625 38.9163 37.2265 39.1788 37.2265 39.548C37.2265 39.9827 36.8 40.4257 36.3816 40.4257C35.832 40.4257 35.3316 39.7777 35.5121 39.3019C35.7335 38.7113 36.2339 38.4816 36.7343 38.7441ZM46.1925 38.8425C46.2828 38.9245 46.4058 39.1132 46.4714 39.2527C46.5617 39.4823 46.5617 39.5644 46.4632 39.7941C46.1925 40.4585 45.5281 40.6226 45.0523 40.1468C44.6093 39.7038 44.675 39.1132 45.2082 38.7769C45.5117 38.5882 45.93 38.6128 46.1925 38.8425ZM41.6316 41.6152C41.8531 41.8695 41.9351 42.1566 41.8695 42.4191C41.8039 42.6898 41.4429 43.0343 41.164 43.0917C40.6882 43.1984 40.0976 42.7062 40.0976 42.214C40.0976 41.9597 40.3847 41.5003 40.6144 41.4101C40.9261 41.2706 41.4265 41.3773 41.6316 41.6152Z" fill="white"/>
<path d="M24.5445 36.2504C24.1179 36.3734 23.9785 36.882 24.2738 37.2594L24.4379 37.4727H26.0293C27.5633 37.4727 27.6289 37.4645 27.7929 37.2922C27.9816 37.0871 28.0062 36.6852 27.8422 36.4719C27.7847 36.3898 27.6371 36.2914 27.514 36.2422C27.2433 36.1438 24.9054 36.1438 24.5445 36.2504Z" fill="white"/>
<path d="M54.4039 36.275C54.0019 36.4473 53.9035 36.9641 54.207 37.2922C54.3711 37.4645 54.4367 37.4727 55.9707 37.4727H57.5621L57.7262 37.2594C58.0379 36.8656 57.882 36.3734 57.4144 36.2422C56.9633 36.1191 54.7074 36.1437 54.4039 36.275Z" fill="white"/>
<path d="M29.9093 46.9801C28.7609 48.1285 28.6789 48.2926 29.0316 48.7438C29.1628 48.9078 29.2695 48.957 29.532 48.957C29.8355 48.957 29.9175 48.8996 30.8035 48.0301C32.0257 46.8406 32.157 46.5863 31.8042 46.1352C31.673 45.9629 31.5664 45.9219 31.2956 45.9219C30.9675 45.9219 30.9101 45.9629 29.9093 46.9801Z" fill="white"/>
<path d="M50.1957 46.1352C49.8429 46.5863 49.9742 46.8406 51.1965 48.0301C52.0824 48.8996 52.1644 48.957 52.4679 48.957C52.7304 48.957 52.8371 48.9078 52.9683 48.7438C53.3211 48.2926 53.239 48.1285 52.0906 46.9801C51.0898 45.9629 51.0324 45.9219 50.7043 45.9219C50.4336 45.9219 50.3269 45.9629 50.1957 46.1352Z" fill="white"/>
</g>
<defs>
<clipPath id="clip0_2132_2662">
<rect width="42" height="42" fill="white" transform="translate(20 20)"/>
</clipPath>
</defs>
</svg>
