<svg width="50" height="51" viewBox="0 0 50 51" fill="none" xmlns="http://www.w3.org/2000/svg">
<path d="M0 24.7062C0 13.2085 0 7.45965 3.57187 3.88779C7.14374 0.315918 12.8926 0.315918 24.3902 0.315918H25.6098C37.1074 0.315918 42.8563 0.315918 46.4281 3.88779C50 7.45965 50 13.2085 50 24.7062V25.9257C50 37.4233 50 43.1722 46.4281 46.744C42.8563 50.3159 37.1074 50.3159 25.6098 50.3159H24.3902C12.8926 50.3159 7.14374 50.3159 3.57187 46.744C0 43.1722 0 37.4233 0 25.9257V24.7062Z" fill="#E5F4F2"/>
<g clip-path="url(#clip0_2044_3368)">
<path d="M15.6863 13.2727C15.5349 13.4534 15.4275 13.6145 15.4519 13.6341C15.4714 13.6536 15.9646 14.0589 16.5408 14.5374C17.1169 15.0159 17.6052 15.4212 17.6248 15.4358C17.6394 15.4505 17.7468 16.3636 17.8591 17.4622C17.9666 18.5657 18.0642 19.469 18.0691 19.469C18.074 19.4739 18.6843 19.6839 19.4265 19.9378L20.7791 20.3968L20.8035 20.6653C20.8181 20.8167 20.8962 21.0901 20.9841 21.2854C21.1697 21.7005 21.1648 21.8079 20.9109 22.3108C20.6814 22.7698 20.2566 23.3167 19.5876 24.0198L19.0261 24.6204H18.2595H17.4929L16.5212 23.4485L15.5496 22.2766H14.0701H12.5857V22.6673V23.0579H13.8455H15.1003L16.072 24.2298L17.0437 25.4016H17.6101H18.1765L17.2488 26.3391C15.5203 28.097 14.7585 29.1516 14.3337 30.3968C14.1873 30.8118 14.1775 30.9046 14.158 31.6419C14.1189 33.1555 14.4167 34.2005 15.0759 34.8792C15.53 35.343 16.0867 35.5579 16.8484 35.5579C17.366 35.5579 17.781 35.4358 18.5085 35.0598C18.7722 34.9231 18.9919 34.8206 19.0017 34.8304C19.0115 34.8401 19.0505 34.9964 19.0994 35.177L19.1775 35.5091L18.8162 36.2317L18.4548 36.9544L18.821 37.1399C19.0212 37.2376 19.197 37.3157 19.2019 37.3059C19.2117 37.2962 19.407 36.9104 19.6365 36.4466L20.0564 35.6067L19.8904 34.9475L19.7244 34.2932L20.0027 34.0882C20.1541 33.9759 20.5789 33.5804 20.95 33.2044C21.3162 32.8333 21.6189 32.5501 21.6189 32.5794C21.6189 32.677 22.0144 33.4485 22.2439 33.8001C22.6833 34.4788 23.2595 34.9134 23.9431 35.094C24.3093 35.1868 25.0808 35.1868 25.447 35.094C26.0964 34.9231 26.7019 34.4788 27.1218 33.8489C27.3025 33.5804 27.6833 32.843 27.7419 32.6429C27.7712 32.5452 27.8445 32.6038 28.4451 33.2093C28.8113 33.5804 29.2361 33.9759 29.3875 34.0882L29.6658 34.2932L29.4998 34.9475L29.3337 35.6067L29.7537 36.4466C29.9832 36.9104 30.1785 37.2962 30.1882 37.3059C30.1931 37.3157 30.3689 37.2376 30.5691 37.1399L30.9353 36.9544L30.574 36.2317L30.2126 35.5091L30.2908 35.177C30.3396 34.9964 30.3787 34.8401 30.3884 34.8304C30.3982 34.8206 30.6179 34.9231 30.8816 35.0598C31.6091 35.4358 32.0242 35.5579 32.5417 35.5579C34.0115 35.5579 34.8757 34.6936 35.1736 32.9212C35.2322 32.5501 35.2468 32.2327 35.2322 31.637C35.2126 30.9095 35.198 30.8118 35.0564 30.3968C34.6316 29.1565 33.8699 28.0921 32.1414 26.3391L31.2136 25.4016H31.78H32.3464L33.3181 24.2298L34.2898 23.0579H35.5496H36.8044V22.6673V22.2766H35.3201H33.8406L32.8689 23.4485L31.8972 24.6204H31.1306H30.364L29.8025 24.0198C29.1335 23.3167 28.7087 22.7698 28.4792 22.3108C28.2253 21.8079 28.2205 21.7005 28.406 21.2854C28.4939 21.0901 28.572 20.8167 28.5867 20.6653L28.6111 20.3968L29.9636 19.9378C30.7058 19.6839 31.3162 19.4739 31.321 19.469C31.3259 19.469 31.4236 18.5657 31.531 17.4622C31.7068 15.719 31.7458 15.4554 31.824 15.3919C31.8728 15.3528 32.3757 14.9329 32.9373 14.4641C33.7332 13.8001 33.9529 13.595 33.9236 13.5364C33.8992 13.4973 33.7722 13.346 33.6453 13.2093L33.4109 12.9554L32.2195 13.9514C31.5603 14.5032 31.0037 14.972 30.9792 14.9964C30.9597 15.0159 30.8523 15.8899 30.7449 16.93C30.6423 17.97 30.5496 18.8294 30.5398 18.8391C30.5203 18.8587 28.5378 19.5423 28.4939 19.5423C28.4792 19.5423 28.406 19.4446 28.3328 19.3225L28.2058 19.1028L28.3474 18.9807C28.5623 18.8001 28.616 18.6194 28.5916 18.18C28.5769 17.887 28.5378 17.7259 28.4304 17.511C28.2498 17.1399 27.8738 16.7688 27.5027 16.5882C27.2488 16.4612 27.1414 16.4417 26.7117 16.427C26.3845 16.4124 26.2087 16.388 26.2087 16.3538C26.2087 16.3196 26.1501 16.1829 26.0818 16.0511L25.9597 15.802L26.1062 15.2112C26.1892 14.8841 26.2576 14.596 26.2576 14.5716C26.2576 14.513 25.5251 14.347 25.4763 14.3958C25.4568 14.4202 25.4128 14.5471 25.3835 14.6839C25.3494 14.8157 25.3054 15.0061 25.281 15.0989L25.2371 15.2698H24.6951H24.1531L24.1091 15.0989C24.0847 15.0061 24.0408 14.8157 24.0066 14.6839C23.9773 14.5471 23.9333 14.4202 23.9138 14.3958C23.865 14.347 23.1326 14.513 23.1326 14.5716C23.1326 14.596 23.2009 14.8841 23.2839 15.2112L23.4304 15.802L23.3083 16.0511C23.24 16.1829 23.1814 16.3196 23.1814 16.3538C23.1814 16.388 23.0056 16.4124 22.6833 16.427C22.2537 16.4417 22.1365 16.4661 21.8875 16.5882C21.5164 16.7639 21.1404 17.1399 20.9597 17.511C20.8523 17.7259 20.8132 17.887 20.7986 18.18C20.7742 18.6194 20.8279 18.8001 21.0427 18.9807L21.1843 19.1028L21.0574 19.3225C20.9841 19.4446 20.9109 19.5423 20.8962 19.5423C20.8523 19.5423 18.8699 18.8587 18.8503 18.8391C18.8406 18.8294 18.7576 18.0579 18.6648 17.1204C18.572 16.1829 18.4841 15.3235 18.4695 15.2161C18.4402 15.0208 18.4011 14.9768 17.4783 14.2151C16.9509 13.7757 16.3943 13.3118 16.2429 13.18L15.9646 12.9505L15.6863 13.2727ZM25.0857 16.1878C25.3591 16.3684 25.4421 16.5589 25.4666 17.1057L25.491 17.5891H24.6951H23.8992L23.9236 17.1057C23.9431 16.7444 23.9724 16.5833 24.0408 16.4612C24.1873 16.2171 24.4216 16.0755 24.6951 16.0755C24.8513 16.0755 24.9783 16.1096 25.0857 16.1878ZM23.1326 17.5647C23.1326 18.0286 23.0496 18.2386 22.8396 18.3167C22.7517 18.346 22.4392 18.3704 22.1511 18.3704H21.6189V18.2483C21.6189 17.9505 21.9119 17.5257 22.2292 17.3548C22.3855 17.2718 22.6589 17.2132 22.9519 17.2034L23.1326 17.1985V17.5647ZM27.0828 17.3255C27.4343 17.472 27.7664 17.9114 27.7712 18.2337V18.3704H27.239C26.9509 18.3704 26.6384 18.346 26.5505 18.3167C26.3406 18.2386 26.2576 18.0335 26.2576 17.5598V17.1839L26.5798 17.218C26.7605 17.2376 26.9851 17.2864 27.0828 17.3255ZM25.5691 18.4827C25.6326 18.6487 25.8474 18.888 26.0378 19.0052C26.1355 19.0637 26.3894 19.1419 26.6335 19.1809C27.1267 19.2591 27.3611 19.3909 27.6003 19.7327C27.7322 19.9231 27.7468 19.9768 27.7468 20.3382V20.7386L26.824 22.721C26.321 23.8147 25.8425 24.7864 25.7644 24.8792C25.6863 24.9768 25.4861 25.1184 25.3201 25.2014C24.9001 25.4163 24.49 25.4163 24.0701 25.2014C23.9041 25.1184 23.7039 24.9768 23.6257 24.8792C23.5476 24.7864 23.0691 23.8147 22.5662 22.721L21.6433 20.7386V20.3382C21.6433 19.9768 21.658 19.9231 21.7898 19.7327C22.0291 19.3909 22.2634 19.2591 22.7664 19.1761C23.2791 19.093 23.5183 18.9563 23.7429 18.6048L23.8894 18.3753H24.7097C25.5203 18.3704 25.53 18.3704 25.5691 18.4827ZM21.4041 23.3362C21.1453 24.0735 20.5544 24.8987 19.1531 26.4759C17.4148 28.4387 16.8923 29.1809 16.5359 30.2356C16.3894 30.6555 16.3748 30.7532 16.3748 31.2854C16.3748 31.7346 16.3992 31.969 16.4871 32.2864C16.5994 32.7161 17.0437 33.7024 17.1267 33.7024C17.1511 33.7024 17.3123 33.6048 17.488 33.4778L17.8054 33.2581L17.6199 32.8821C17.3708 32.3841 17.2341 31.9251 17.1951 31.4661C17.1218 30.5042 17.698 29.4202 19.2019 27.6917C19.5193 27.3352 19.8074 27.0032 19.8464 26.9641C19.8855 26.9251 19.783 27.1057 19.6218 27.3645C19.1726 28.0774 18.8113 28.7903 18.6306 29.3079C18.4744 29.7522 18.4695 29.8011 18.4695 30.5042C18.4744 31.178 18.4841 31.2708 18.6111 31.6516C18.7429 32.0471 19.0066 32.6282 19.0554 32.6282C19.0994 32.6282 19.7146 32.2766 19.739 32.2376C19.7537 32.218 19.6853 32.0374 19.5925 31.8372C19.3679 31.3587 19.2751 30.9778 19.2751 30.5139C19.2751 30.0061 19.3728 29.6399 19.6853 28.9905C19.9343 28.4729 20.1492 28.1067 20.9548 26.8225C21.3992 26.1194 21.6726 25.6214 21.8875 25.1282L22.0437 24.7669L22.156 25.5384C22.2439 26.1438 22.2683 26.5979 22.2878 27.6966C22.3074 29.0637 22.3074 29.0979 22.1853 29.5667C21.9216 30.5823 21.321 31.593 20.4031 32.5452C19.114 33.8782 17.7029 34.7376 16.8044 34.7327C15.5984 34.7278 14.9783 33.7366 14.9783 31.8225C14.9783 31.0999 15.0613 30.7141 15.3445 30.1184C15.823 29.1028 16.3992 28.4192 18.6697 26.1341C20.491 24.303 21.0232 23.7317 21.3113 23.2971C21.4675 23.0628 21.4968 23.0774 21.4041 23.3362ZM28.3767 23.6878C28.738 24.1468 29.2556 24.679 30.9695 26.3782C32.3416 27.7405 33.074 28.5559 33.5281 29.2249C33.8796 29.7473 34.2068 30.4212 34.3142 30.8557C34.5144 31.6223 34.407 33.0286 34.0945 33.7268C33.9236 34.1126 33.5378 34.5081 33.2009 34.6302C32.5173 34.8889 31.7703 34.6887 30.657 33.9563C30.0369 33.5511 29.6023 33.18 28.9871 32.5452C28.0691 31.593 27.4685 30.5823 27.2048 29.5667C27.0828 29.0979 27.0828 29.0637 27.1023 27.6966C27.1218 26.5979 27.1462 26.1438 27.2341 25.5335L27.3464 24.7669L27.449 25.0208C27.615 25.4309 28.0105 26.1585 28.4304 26.8177C29.5046 28.5169 29.8904 29.2444 30.0369 29.8255C30.1345 30.2112 30.1345 30.8167 30.0417 31.1878C29.9978 31.3489 29.8904 31.6419 29.7976 31.8372C29.7048 32.0374 29.6414 32.218 29.656 32.2425C29.6755 32.2766 30.0955 32.5159 30.3201 32.6184C30.3738 32.6429 30.6277 32.1106 30.7791 31.6516C30.906 31.2708 30.9158 31.178 30.9207 30.5042C30.9207 29.8011 30.9158 29.7522 30.7595 29.3079C30.5789 28.7903 30.2175 28.0774 29.7683 27.3645C29.6072 27.1057 29.5046 26.9251 29.5437 26.9641C29.5828 27.0032 29.8708 27.3352 30.1882 27.6917C31.6921 29.4202 32.2683 30.5042 32.1951 31.4661C32.156 31.9251 32.0193 32.3841 31.7703 32.8821L31.5847 33.2581L31.9021 33.4778C32.0779 33.6048 32.239 33.7024 32.2634 33.7024C32.3464 33.7024 32.7908 32.7161 32.9031 32.2864C32.991 31.969 33.0154 31.7346 33.0154 31.2854C33.0154 30.7532 33.0007 30.6555 32.8542 30.2356C32.4978 29.1809 31.9753 28.4387 30.2371 26.4759C29.4021 25.5335 28.8845 24.9036 28.5574 24.4153C28.3035 24.0393 28.0007 23.4387 27.947 23.2044L27.9128 23.0823L28.0007 23.2044C28.0496 23.2679 28.2205 23.4876 28.3767 23.6878ZM23.7625 25.9973C24.0457 26.1341 24.1482 26.1585 24.5828 26.1731C25.2712 26.2024 25.74 26.0413 26.2234 25.6067L26.4187 25.4261L26.3845 25.6214C26.3308 25.9729 26.2576 26.93 26.2576 27.3401V27.7454H24.6951H23.1326V27.3401C23.1326 26.9348 23.0593 25.9729 23.0056 25.6262L22.9763 25.4309L23.2107 25.636C23.3376 25.7532 23.5867 25.9143 23.7625 25.9973ZM26.2576 28.8147C26.2576 29.0589 26.3259 29.4886 26.4382 29.9768L26.4626 30.0891H24.6951H22.9275L22.9519 29.9768C23.0642 29.4886 23.1326 29.0589 23.1326 28.8147V28.5266H24.6951H26.2576V28.8147ZM26.9851 31.2805L27.2 31.6907L27.0681 32.0618L26.9314 32.4329H24.6951H22.4587L22.322 32.0618L22.1902 31.6907L22.405 31.2805L22.6199 30.8704H24.6951H26.7703L26.9851 31.2805ZM26.5017 33.2483C26.5017 33.3411 26.0476 33.8538 25.8425 33.9954C25.1687 34.4593 24.2214 34.4593 23.5476 33.9954C23.3425 33.8538 22.8884 33.3411 22.8884 33.2483C22.8884 33.2288 23.7039 33.2141 24.6951 33.2141C25.6912 33.2141 26.5017 33.2288 26.5017 33.2483Z" fill="#009379"/>
</g>
<defs>
<clipPath id="clip0_2044_3368">
<rect width="25" height="25" fill="white" transform="translate(12.1951 12.511)"/>
</clipPath>
</defs>
</svg>
