<svg width="50" height="51" viewBox="0 0 50 51" fill="none" xmlns="http://www.w3.org/2000/svg">
<path d="M0 24.7062C0 13.2085 0 7.45965 3.57187 3.88779C7.14374 0.315918 12.8926 0.315918 24.3902 0.315918H25.6098C37.1074 0.315918 42.8563 0.315918 46.4281 3.88779C50 7.45965 50 13.2085 50 24.7062V25.9257C50 37.4233 50 43.1722 46.4281 46.744C42.8563 50.3159 37.1074 50.3159 25.6098 50.3159H24.3902C12.8926 50.3159 7.14374 50.3159 3.57187 46.744C0 43.1722 0 37.4233 0 25.9257V24.7062Z" fill="#E5F4F2"/>
<path d="M17.117 14.6448C16.9608 14.7424 16.8826 14.9036 16.8826 15.1135C16.8826 15.2014 17.366 16.6028 17.9568 18.2239C18.9383 20.9241 19.0457 21.1926 19.1971 21.3245C19.5926 21.6711 20.5936 22.5891 20.5789 22.594C20.574 22.5989 20.032 22.5647 19.3729 22.5159C18.7137 22.467 18.0838 22.428 17.9715 22.428L17.7615 22.4231L16.741 20.3821C15.6424 18.1897 15.6668 18.2239 15.2908 18.2239C15.0418 18.2239 14.783 18.4827 14.783 18.7317C14.783 18.9758 16.9217 23.2629 17.1024 23.3801C17.2 23.4436 17.6199 23.4875 19.2313 23.5999C20.3348 23.6731 21.2479 23.7463 21.2576 23.7561C21.2674 23.7659 19.7586 24.4202 17.8983 25.2112C14.9197 26.4807 14.5145 26.6663 14.4363 26.7932C14.3484 26.9299 14.3436 27.1155 14.3436 30.2112C14.3436 33.3508 14.3484 33.4875 14.4363 33.634C14.6219 33.9417 15.0906 33.9563 15.3201 33.6682C15.4178 33.5461 15.4178 33.4778 15.4178 30.5042V27.4622L15.8719 27.2864C18.5818 26.2415 19.4949 25.8948 19.5047 25.9094C19.5096 25.9143 18.9481 26.5735 18.2449 27.3743C17.5467 28.175 16.9559 28.8733 16.9315 28.9221C16.9022 28.9709 16.8826 29.0833 16.8826 29.1711C16.8826 29.3079 18.8895 34.9524 19.0359 35.2209C19.0994 35.343 19.3338 35.4602 19.5047 35.4602C19.827 35.4602 20.0955 35.1233 20.0223 34.8157C20.0076 34.7522 19.5584 33.4875 19.0213 32.0032C18.1961 29.7034 18.0643 29.2883 18.1131 29.2151C18.2059 29.0881 19.7733 27.3059 19.7928 27.3059C19.8026 27.3059 19.7977 27.5305 19.7781 27.8088C19.6317 30.2795 21.3309 32.0374 24.119 32.2913C26.0477 32.467 27.8787 31.7932 28.8162 30.5579C29.1434 30.1282 29.2947 29.8254 29.4656 29.2737C29.5828 28.8879 29.5975 28.7659 29.5975 28.0725C29.6024 27.6526 29.6072 27.3059 29.6072 27.3059C29.6219 27.3059 31.2137 29.1321 31.2772 29.2151C31.326 29.2883 31.1942 29.6985 30.369 32.0032C29.8318 33.4875 29.3826 34.7522 29.368 34.8157C29.2947 35.1233 29.5633 35.4602 29.8856 35.4602C30.0565 35.4602 30.2908 35.343 30.3543 35.2209C30.5008 34.9475 32.5076 29.3079 32.5076 29.1711C32.5076 29.0833 32.4881 28.9709 32.4588 28.9221C32.4344 28.8733 31.8436 28.175 31.1453 27.3743C30.4471 26.5735 29.8807 25.9143 29.8856 25.9045C29.8953 25.8948 30.8182 26.2463 33.5233 27.2864L33.9725 27.4622V30.5042C33.9725 33.4778 33.9725 33.5461 34.0701 33.6682C34.2996 33.9563 34.7684 33.9417 34.9539 33.634C35.0418 33.4875 35.0467 33.3508 35.0467 30.2209C35.0467 27.4622 35.0369 26.9397 34.9734 26.8225C34.8856 26.6516 35.0369 26.72 31.243 25.1038L28.0936 23.7659L28.3865 23.7317C28.5428 23.7073 29.4608 23.6389 30.4178 23.5754C31.824 23.4827 32.1854 23.4436 32.2879 23.3801C32.3758 23.3215 32.7274 22.6624 33.5135 21.095C34.534 19.0588 34.617 18.8733 34.5926 18.6877C34.5584 18.4338 34.3338 18.2239 34.0945 18.2239C33.7283 18.2239 33.743 18.1946 32.6492 20.3821L31.6287 22.4231L31.4432 22.428C31.3455 22.428 30.7156 22.467 30.0418 22.5159C29.3729 22.5647 28.8162 22.5989 28.8113 22.594C28.7967 22.5891 29.7879 21.676 30.1932 21.3245C30.3445 21.1926 30.452 20.9241 31.4334 18.2239C32.0242 16.6028 32.5076 15.2014 32.5076 15.1135C32.5076 14.8938 32.4246 14.7375 32.2537 14.635C32.0633 14.5227 31.7508 14.5618 31.6043 14.718C31.5311 14.7913 31.1307 15.8362 30.4617 17.6819C29.8953 19.2542 29.4266 20.5383 29.4168 20.5432C29.407 20.5481 28.0057 21.8079 27.6688 22.1155L27.5418 22.2327L27.6688 21.8762C27.7762 21.5637 27.7908 21.4417 27.7957 20.8606C27.7957 20.3137 27.7762 20.1428 27.6883 19.8547C27.5711 19.4885 27.2 18.8782 26.951 18.6438C26.8387 18.5364 26.7947 18.4485 26.7703 18.2532C26.6483 17.301 26.2674 16.6614 25.8182 16.6614C25.7254 16.6614 25.7205 16.6907 25.7205 17.2668V17.8723L25.491 17.7991C25.1688 17.6965 24.2117 17.6965 23.9041 17.7991L23.6697 17.8723V17.2668C23.6697 16.6077 23.6697 16.6077 23.3914 16.7151C23.0057 16.8616 22.7274 17.4182 22.6199 18.2532C22.5955 18.4485 22.5516 18.5364 22.4393 18.6438C22.1902 18.8782 21.8387 19.4592 21.7117 19.8401C21.6092 20.1526 21.5945 20.2942 21.5945 20.8606C21.5994 21.4417 21.6141 21.5637 21.7215 21.8762L21.8484 22.2327L21.7215 22.1155C21.3846 21.8079 19.9832 20.5481 19.9686 20.5432C19.9637 20.5383 19.4949 19.2493 18.9285 17.6819C18.2449 15.7922 17.8592 14.7913 17.7859 14.7131C17.6395 14.5618 17.3026 14.5276 17.117 14.6448ZM25.3543 18.9124C26.5457 19.3567 27.0779 20.675 26.5115 21.7786C26.1209 22.5403 25.1883 23.0188 24.3875 22.8723C22.7615 22.5696 22.0975 20.7092 23.1815 19.4788C23.7039 18.8879 24.6365 18.6438 25.3543 18.9124ZM23.4061 23.7219C24.1922 24.0686 25.1981 24.0686 25.9793 23.7219C26.1844 23.634 26.2918 23.6096 26.3504 23.6389C26.5359 23.7415 27.1609 24.4592 27.4588 24.9133C28.0203 25.7678 28.3621 26.6516 28.4891 27.5793C28.5623 28.0823 28.5623 28.175 28.494 28.6047C28.2742 29.9329 27.2781 30.8313 25.6717 31.134C25.1541 31.2317 24.2361 31.2317 23.7186 31.134C22.1121 30.8313 21.116 29.9329 20.8963 28.6047C20.8279 28.175 20.8279 28.0823 20.9012 27.5793C21.0818 26.2805 21.7459 24.928 22.6639 24.0002C22.8836 23.7756 23.074 23.595 23.0936 23.595C23.1082 23.595 23.2498 23.6536 23.4061 23.7219Z" fill="#009379"/>
</svg>
