<svg width="50" height="51" viewBox="0 0 50 51" fill="none" xmlns="http://www.w3.org/2000/svg">
<path d="M0 24.7062C0 13.2085 0 7.45965 3.57187 3.88779C7.14374 0.315918 12.8926 0.315918 24.3902 0.315918H25.6098C37.1074 0.315918 42.8563 0.315918 46.4281 3.88779C50 7.45965 50 13.2085 50 24.7062V25.9257C50 37.4233 50 43.1722 46.4281 46.744C42.8563 50.3159 37.1074 50.3159 25.6098 50.3159H24.3902C12.8926 50.3159 7.14374 50.3159 3.57187 46.744C0 43.1722 0 37.4233 0 25.9257V24.7062Z" fill="#E5F4F2"/>
<path d="M21.7883 12.5259C20.8361 12.7508 20.0723 13.2056 19.5962 13.8316C19.073 14.526 18.8847 15.0835 18.8847 15.9687C18.8847 16.4822 18.8952 16.5556 19.005 16.7072C19.0678 16.7952 19.2038 16.9223 19.298 16.981C19.4602 17.0837 19.5334 17.0935 20.2083 17.0935C20.8466 17.0935 20.9617 17.0788 21.1291 16.9908C21.4691 16.8148 21.5633 16.624 21.6052 16.0421C21.6418 15.4943 21.6941 15.3721 21.9766 15.1716C22.1283 15.0689 22.4736 15.0102 22.6777 15.0591C22.8869 15.108 23.2165 15.4161 23.2793 15.6166C23.3107 15.7291 23.3316 16.893 23.3316 18.7171V21.6416H22.6829H22.0342L22.0132 20.82C21.9975 20.0278 21.9923 19.9984 21.8511 19.7735C21.6836 19.5045 21.3488 19.2746 21.0192 19.1964C20.8727 19.1621 20.3705 19.1475 19.6381 19.1573C18.3772 19.1719 18.3145 19.1866 17.9535 19.5094C17.5977 19.8175 17.5559 19.9642 17.5349 20.8445L17.514 21.6416H15.4946C14.3802 21.6416 13.381 21.6563 13.2711 21.6709C12.952 21.7247 12.5492 21.979 12.3765 22.248C12.251 22.4387 12.2143 22.5561 12.1986 22.8251C12.162 23.3679 12.4131 23.8227 12.8683 24.0379C13.0566 24.1308 13.0671 24.1406 13.1037 24.4634C13.3653 26.8792 14.9557 29.0457 17.2367 30.102C18.4714 30.6742 19.2038 30.8307 20.8257 30.8698L21.9609 30.8991L21.9818 31.6621C21.9975 32.2196 22.0237 32.4739 22.0865 32.601C22.1963 32.8406 22.5102 33.1585 22.7038 33.2319L22.8608 33.2906V34.6012C22.8608 35.3201 22.8817 36.0194 22.9131 36.1563C23.0177 36.6894 23.3682 37.1295 23.8809 37.3838C24.1164 37.4963 24.2001 37.511 24.6918 37.511C25.1836 37.511 25.2673 37.4963 25.5028 37.3838C26.0155 37.1295 26.366 36.6894 26.4706 36.1563C26.502 36.0194 26.5229 35.3201 26.5229 34.6012V33.2906L26.6799 33.2319C26.8735 33.1585 27.1874 32.8406 27.2972 32.601C27.36 32.4739 27.3862 32.2196 27.4018 31.6621L27.4228 30.8943L28.5319 30.8698C30.0491 30.8405 30.8547 30.6791 31.9429 30.2047C34.36 29.1386 36.0079 26.9624 36.28 24.4634C36.3166 24.1406 36.3271 24.1308 36.5154 24.0379C36.7822 23.9107 37.0647 23.5929 37.1432 23.3288C37.2478 22.9767 37.1903 22.5268 37.0072 22.248C36.8345 21.979 36.4317 21.7247 36.1126 21.6709C36.0027 21.6563 35.0035 21.6416 33.8891 21.6416H31.8697L31.8488 20.8445C31.8278 19.9642 31.786 19.8175 31.4302 19.5094C31.0692 19.1866 31.0012 19.1719 29.7666 19.1573C29.0603 19.1426 28.5424 19.1573 28.3802 19.1915C28.0087 19.2697 27.6634 19.524 27.496 19.837C27.3652 20.0815 27.36 20.1305 27.36 20.8689V21.6416H26.706H26.0521V18.546C26.0521 15.0395 26.0521 15.064 25.6545 14.306C25.2464 13.5382 24.5297 12.9513 23.6351 12.6579C23.3107 12.5454 23.1485 12.5259 22.573 12.5161C22.2016 12.5063 21.8458 12.5112 21.7883 12.5259ZM23.2427 13.4746C23.8862 13.6604 24.4564 14.1104 24.786 14.6874C25.1052 15.2449 25.1104 15.2938 25.1104 18.6193V21.6416H24.6918H24.2785L24.2629 18.5215L24.2472 15.4063L24.1007 15.1276C23.9176 14.7803 23.6194 14.4918 23.2688 14.3255C23.0491 14.2179 22.8974 14.1886 22.5469 14.169C21.9923 14.1446 21.6261 14.2571 21.2442 14.5798C20.8623 14.9026 20.7001 15.24 20.6739 15.7829L20.653 16.2132H20.2397H19.8264V15.8513C19.8264 14.7999 20.5588 13.8512 21.6523 13.4942C22.1074 13.3426 22.7561 13.3328 23.2427 13.4746ZM20.8675 20.1011C20.9512 20.1402 21.0297 20.2087 21.0506 20.2478C21.0663 20.2918 21.082 20.6244 21.082 20.9863V21.6416H19.7741H18.4662V20.9765V20.3114L18.6179 20.1696L18.7696 20.0278H19.7479C20.5013 20.0278 20.7524 20.0424 20.8675 20.1011ZM30.7658 20.1696L30.9175 20.3114V20.9765V21.6416H29.6096H28.3017V20.9667C28.3017 20.0082 28.2703 20.0326 29.6253 20.0278H30.6141L30.7658 20.1696ZM36.0079 22.5805C36.2747 22.7126 36.3375 22.9962 36.1387 23.1919L36.0289 23.3043H24.6971H13.3705L13.2502 23.1967C13.0462 23.0158 13.0985 22.7126 13.3653 22.5805C13.5223 22.4974 35.851 22.4974 36.0079 22.5805ZM35.3644 24.2433C35.3644 24.2775 35.3278 24.5074 35.286 24.7568C34.8413 27.3243 32.7172 29.3636 29.9392 29.8917C29.5154 29.9749 29.0812 29.9797 24.6918 29.9797C20.3025 29.9797 19.8683 29.9749 19.4445 29.8917C17.0013 29.4271 15.0551 27.7986 14.3122 25.6077C14.1971 25.2654 14.0193 24.4438 14.0193 24.2433C14.0193 24.1993 16.1904 24.1846 24.6918 24.1846C33.1933 24.1846 35.3644 24.1993 35.3644 24.2433ZM26.4602 31.574C26.4445 32.2587 26.4445 32.2636 26.298 32.3809L26.1515 32.4983H24.6918H23.2322L23.0857 32.3809C22.9392 32.2636 22.9392 32.2587 22.9235 31.574L22.9026 30.8845H24.6918H26.4811L26.4602 31.574ZM25.5812 34.6061C25.5812 35.8531 25.5446 36.1515 25.3772 36.3471C25.0214 36.753 24.3623 36.753 24.0065 36.3471C23.8391 36.1515 23.8025 35.8531 23.8025 34.6061V33.3786H24.6918H25.5812V34.6061Z" fill="#009379"/>
</svg>
