<svg width="50" height="51" viewBox="0 0 50 51" fill="none" xmlns="http://www.w3.org/2000/svg">
<path d="M0 25.0111C0 13.5134 0 7.76459 3.57187 4.19272C7.14374 0.62085 12.8926 0.62085 24.3902 0.62085H25.6098C37.1074 0.62085 42.8563 0.62085 46.4281 4.19272C50 7.76459 50 13.5134 50 25.0111V26.2306C50 37.7283 50 43.4771 46.4281 47.049C42.8563 50.6208 37.1074 50.6208 25.6098 50.6208H24.3902C12.8926 50.6208 7.14374 50.6208 3.57187 47.049C0 43.4771 0 37.7283 0 26.2306V25.0111Z" fill="#E5F4F2"/>
<path d="M23.5477 14.4077C22.41 14.5639 21.6043 14.7592 20.7889 15.0766C19.2899 15.6577 18.0984 16.4292 16.9559 17.5766C15.2957 19.2319 14.3143 21.1362 13.8748 23.5336C13.743 24.2368 13.743 26.395 13.8748 27.0981C14.2166 28.9584 14.8758 30.4868 15.9695 31.9516C16.4139 32.5473 17.4539 33.5874 18.0594 34.0415C19.6609 35.2426 21.5115 35.9848 23.4695 36.2094C24.1531 36.2875 25.8865 36.2436 26.5018 36.1313C28.3231 35.8042 29.8807 35.1303 31.3309 34.0415C31.9315 33.5922 32.9715 32.5522 33.4207 31.9516C34.5096 30.4965 35.1785 28.9584 35.5154 27.0981C35.6473 26.395 35.6473 24.2368 35.5154 23.5336C35.1736 21.6733 34.5145 20.145 33.4207 18.6801C32.9715 18.0795 31.9315 17.0395 31.3309 16.5903C29.8758 15.5014 28.3328 14.8325 26.5018 14.5004C26.1649 14.437 25.7156 14.4126 24.866 14.4028C24.2215 14.393 23.6307 14.3979 23.5477 14.4077ZM25.4959 15.2329C27.4197 15.3256 29.7195 16.2778 31.243 17.6108L31.5067 17.8403L29.5682 19.7836C28.2303 21.1215 27.6102 21.7075 27.576 21.6733C27.5418 21.6391 27.6199 21.3901 27.825 20.8676L28.118 20.1157L28.7039 19.7299C29.0262 19.5151 29.3094 19.3051 29.3387 19.2563C29.4217 19.0952 29.3875 18.9145 29.2361 18.7631C29.0164 18.5483 28.8699 18.5922 28.1033 19.1049L27.4539 19.5395L27.2147 20.145C26.785 21.2241 26.8143 21.1704 26.6824 21.1118C26.619 21.0825 26.5213 20.9653 26.4627 20.8432C26.4041 20.726 26.2772 20.5454 26.1795 20.4331L25.9988 20.2377L26.0574 19.9545C26.1844 19.31 26.16 19.3442 26.7899 18.9243C27.3758 18.5336 27.4295 18.475 27.4295 18.2504C27.4295 18.0844 27.1805 17.8452 27.0096 17.8452C26.8631 17.8452 25.5496 18.6801 25.4813 18.8168C25.4568 18.8608 25.3934 19.1049 25.3348 19.3588L25.2274 19.8276L24.6658 19.8227H24.1043L24.0604 19.6518C24.0359 19.559 23.992 19.3588 23.9578 19.2124C23.9285 19.0659 23.8699 18.895 23.8309 18.8315C23.7186 18.6508 22.4637 17.8452 22.2977 17.8452C22.0193 17.8452 21.8338 18.1674 21.9412 18.4555C21.9608 18.4995 22.2293 18.7094 22.5467 18.9194L23.118 19.3051L23.2254 19.769L23.3377 20.2377L23.1131 20.4868C22.991 20.6235 22.8641 20.8042 22.8348 20.8969C22.7859 21.0288 22.5662 21.2143 22.5223 21.1557C22.5174 21.1459 22.3856 20.8237 22.2342 20.4331C22.0779 20.0424 21.9217 19.6762 21.8826 19.6127C21.7606 19.4272 20.5106 18.6264 20.3445 18.6264C20.0467 18.6264 19.8416 19.0366 20.0223 19.2758C20.0516 19.3198 20.3348 19.5297 20.6424 19.7348L21.199 20.1157L21.5067 20.8725L21.8094 21.6293L21.619 21.7905C21.3699 22.0004 20.8719 22.6645 20.6863 23.0258L20.5447 23.3139H20.0174C19.7 23.3139 19.4461 23.3383 19.3729 23.3774C19.2703 23.4262 19.1873 23.6167 18.8358 24.642L18.4207 25.8481L17.493 26.5854C16.9852 26.9907 16.5359 27.3618 16.5067 27.4008C16.3162 27.645 16.5311 28.0502 16.8484 28.0502C16.9949 28.0502 17.1658 27.9282 18.0594 27.2153C18.6356 26.7563 19.1287 26.3364 19.158 26.2778C19.1873 26.2192 19.3631 25.7163 19.5486 25.1547L19.8856 24.144H20.0565H20.2322L20.1151 24.6909C20.0076 25.1743 19.993 25.3842 19.9832 26.3803L19.9734 27.518L19.4412 27.811C19.1483 27.9721 18.8797 28.1381 18.8455 28.1821C18.8016 28.2407 18.7869 28.5727 18.7869 29.4174V30.5649L18.0106 31.3413C17.5858 31.7661 17.2147 32.103 17.1854 32.0834C17.1561 32.0688 16.9949 31.8833 16.8289 31.6733C15.6815 30.2524 14.9149 28.4848 14.6658 26.6879C14.5682 25.9897 14.5682 24.6274 14.6609 23.9487C15.1346 20.6088 17.1951 17.7622 20.2322 16.2387C21.2186 15.7456 22.4246 15.3842 23.5233 15.2573C24.0018 15.2036 24.5633 15.1743 24.8172 15.1938C24.9002 15.1987 25.2029 15.2182 25.4959 15.2329ZM32.4588 18.8315C33.6356 20.2231 34.4705 22.103 34.7244 23.9438C34.8221 24.642 34.8221 26.0043 34.7293 26.6831C34.4119 28.9194 33.4012 30.9213 31.7947 32.5034C30.9598 33.3237 30.1981 33.8706 29.1629 34.3881C27.7615 35.0913 26.3113 35.4282 24.6951 35.4282C23.0594 35.4282 21.6483 35.0961 20.1785 34.3637C19.3973 33.9731 18.1863 33.1479 17.908 32.811C17.8494 32.7426 18.0154 32.5571 19.2996 31.2729L20.7547 29.8178L20.9354 30.0913C21.4236 30.8432 22.1072 31.4584 22.9031 31.8588C23.6502 32.2348 23.9774 32.3227 24.6707 32.3178C25.1736 32.3178 25.3152 32.2983 25.6717 32.1811C26.6873 31.8442 27.5613 31.2143 28.2108 30.3354C28.5233 29.9252 28.8895 29.2075 29.0213 28.7583C29.0701 28.5971 29.1238 28.4458 29.1434 28.4213C29.1629 28.4018 29.3045 28.4506 29.451 28.5385L29.7244 28.6899V29.8227V30.9506L30.2274 31.4536C30.6522 31.8784 30.7547 31.9565 30.8817 31.9565C31.1014 31.9565 31.1844 31.9125 31.2625 31.7563C31.3895 31.5122 31.3553 31.4292 30.9451 31.0092L30.5545 30.6088V29.4565C30.5545 28.3969 30.5447 28.2993 30.4617 28.187C30.408 28.1235 30.1297 27.9428 29.8367 27.7817L29.3094 27.4985L29.3533 26.9809C29.4168 26.2192 29.3192 25.0815 29.1141 24.2758C29.0799 24.1391 29.0799 24.1391 29.2606 24.1538L29.4461 24.1684L29.8074 25.2524L30.1736 26.3413L31.243 27.1958C32.1414 27.9086 32.3416 28.0502 32.4734 28.0502C32.7762 28.0502 32.9813 27.7182 32.8445 27.4692C32.8055 27.4008 32.3465 27.0004 31.824 26.5854L30.8768 25.8237L30.4959 24.6811C30.2029 23.7973 30.0858 23.5092 29.993 23.4213C29.8758 23.3237 29.8172 23.3139 29.3143 23.3139H28.7625L28.6502 23.0649C28.5867 22.9282 28.4598 22.7182 28.3768 22.5913L28.2205 22.3618L30.1541 20.4184C31.2186 19.354 32.1072 18.4799 32.1268 18.4799C32.1463 18.4799 32.2977 18.6411 32.4588 18.8315ZM25.1883 20.7504C25.3592 20.8383 25.6717 21.1069 25.6717 21.1704C25.6717 21.2338 25.0027 21.3608 24.6707 21.3608C24.2606 21.3608 23.6697 21.229 23.6697 21.1411C23.6697 21.0385 24.0115 20.7797 24.2557 20.7016C24.5242 20.6137 24.9637 20.6381 25.1883 20.7504ZM23.4647 21.9956C23.7088 22.0737 23.9481 22.142 24.0018 22.142C24.2654 22.142 24.2557 22.0883 24.2557 23.6508V25.0961L22.6443 26.7075C21.5701 27.7817 21.0281 28.2895 21.0135 28.2407C20.8084 27.6938 20.7303 26.185 20.8572 25.3208C21.0867 23.7827 21.7508 22.601 22.7127 22.0249C22.8738 21.9272 23.0106 21.8491 23.0154 21.8491C23.0252 21.8491 23.2254 21.9125 23.4647 21.9956ZM26.5555 22.0004C27.1072 22.2983 27.1414 22.2104 26.0477 23.3042L25.0858 24.2661L25.0955 23.2211L25.1102 22.1713L25.4276 22.1127C25.6033 22.0786 25.8572 22.0102 25.9891 21.9565C26.1258 21.9028 26.243 21.8588 26.2527 21.854C26.2625 21.8491 26.3943 21.9174 26.5555 22.0004ZM27.8885 23.4116C28.5233 24.5786 28.7234 26.5756 28.3572 28.06C28.0203 29.4174 27.2293 30.4819 26.1063 31.0922C25.8328 31.2436 25.242 31.4682 25.1248 31.4682C25.1053 31.4682 25.0858 30.1206 25.0858 28.4799V25.4868L26.3406 24.2319C27.327 23.2456 27.6102 22.9868 27.6541 23.0356C27.6883 23.0649 27.7908 23.2358 27.8885 23.4116ZM24.2361 31.4584C24.2215 31.4682 24.0897 31.4389 23.9334 31.395C23.0008 31.1215 22.0633 30.3598 21.5067 29.4174L21.3748 29.1977L22.8055 27.767L24.2313 26.3413L24.2459 28.8901C24.2508 30.2866 24.2459 31.4438 24.2361 31.4584ZM20.2762 28.6899L20.369 28.9829L19.993 29.3588L19.617 29.7348V29.1928V28.6557L19.8758 28.5288C20.0125 28.4555 20.1443 28.3969 20.159 28.3969C20.1736 28.392 20.2274 28.5239 20.2762 28.6899Z" fill="#009379"/>
</svg>
