<svg width="82" height="82" viewBox="0 0 82 82" fill="none" xmlns="http://www.w3.org/2000/svg">
<path d="M0 40C0 21.1438 0 11.7157 5.85786 5.85786C11.7157 0 21.1438 0 40 0H42C60.8562 0 70.2843 0 76.1421 5.85786C82 11.7157 82 21.1438 82 40V42C82 60.8562 82 70.2843 76.1421 76.1421C70.2843 82 60.8562 82 42 82H40C21.1438 82 11.7157 82 5.85786 76.1421C0 70.2843 0 60.8562 0 42V40Z" fill="#264190" fill-opacity="0.5"/>
<path d="M38.334 21.3208C37.9648 21.4192 37.4316 21.9114 37.2347 22.3216C37.0789 22.6415 37.0625 22.822 37.0625 24.1919V25.7013L36.3898 25.931C36.0125 26.0622 35.4301 26.3083 35.0937 26.4806L34.4785 26.7923L33.4121 25.7423C32.4687 24.8153 32.2965 24.6759 31.9027 24.561C31.3449 24.397 31.1316 24.397 30.582 24.561C30.1801 24.6841 29.9996 24.8317 28.5148 26.3001C26.6773 28.113 26.4805 28.4001 26.4805 29.2204C26.4887 29.9669 26.6773 30.2868 27.7847 31.427L28.7773 32.4442L28.4574 33.1497C28.2769 33.5353 28.0555 34.1095 27.9488 34.4212L27.7683 35.0036L26.1441 35.0282L24.5281 35.0528L24.1754 35.2989C23.9785 35.4384 23.7078 35.7091 23.5683 35.906L23.3222 36.2587L23.2976 38.8099C23.2812 40.9673 23.2976 41.4185 23.4043 41.7056C23.634 42.3044 24.2574 42.7966 24.9465 42.9196L25.25 42.9771V42.2716C25.25 41.6153 25.2418 41.5661 25.0613 41.5005C24.6512 41.3446 24.6347 41.2626 24.6101 39.2856C24.5773 37.2185 24.6183 36.7919 24.848 36.5622C24.9957 36.4146 25.1351 36.4063 26.9234 36.4063H28.843L28.9414 35.9716C29.1875 34.9462 29.8273 33.4204 30.3933 32.5263L30.5984 32.2063L29.2367 30.8364C28.1129 29.6962 27.875 29.4255 27.875 29.2286C27.875 29.0317 28.1293 28.7364 29.4172 27.4485C30.2621 26.5954 31.0332 25.8817 31.1316 25.8571C31.4187 25.7833 31.6238 25.9474 32.9691 27.2763L34.2488 28.5395L34.6836 28.2853C35.6515 27.7192 36.7918 27.2353 37.9074 26.9235L38.375 26.8005V25.1024C38.375 23.3306 38.4406 22.8466 38.7031 22.7071C38.9082 22.6005 43.0918 22.6005 43.2969 22.7071C43.5594 22.8466 43.625 23.3306 43.625 25.1024V26.8005L44.1008 26.9235C45.2082 27.2353 46.3484 27.7192 47.3164 28.2853L47.7512 28.5395L49.0308 27.2763C50.3762 25.9474 50.5812 25.7833 50.8683 25.8571C50.9668 25.8817 51.7379 26.5954 52.591 27.4485C53.8707 28.7364 54.125 29.0317 54.125 29.2286C54.125 29.4255 53.8871 29.6962 52.7633 30.8282L51.4015 32.1981L51.6558 32.6083C52.1152 33.3466 52.632 34.5442 52.9109 35.4794L53.1816 36.4063H55.093C56.8648 36.4063 57.0043 36.4146 57.1519 36.5622C57.3816 36.7919 57.4226 37.2185 57.3898 39.2856C57.3652 41.2626 57.3488 41.3446 56.9387 41.5005C56.7582 41.5661 56.75 41.6153 56.75 42.2716V42.9771L57.0617 42.9196C57.7262 42.7966 58.2922 42.37 58.5629 41.7794C58.7023 41.4841 58.7187 41.197 58.7187 38.9575C58.7187 36.5868 58.7105 36.4392 58.5465 36.1028C58.3414 35.6681 57.841 35.2333 57.4144 35.1103C57.2258 35.0528 56.5203 35.0118 55.6672 35.0118H54.2398L54.0922 34.536C54.0101 34.2817 53.7805 33.6993 53.5836 33.2563L53.2226 32.4442L54.2152 31.427C55.3226 30.2868 55.5113 29.9669 55.5195 29.2204C55.5195 28.4001 55.3226 28.113 53.4851 26.3001C52.0004 24.8317 51.8199 24.6841 51.418 24.561C50.8683 24.397 50.6551 24.397 50.0972 24.561C49.7035 24.6759 49.5312 24.8153 48.5879 25.7341L47.5215 26.7841L46.9062 26.4724C46.5699 26.3083 45.9875 26.0622 45.6183 25.931L44.9375 25.7013V24.1919C44.9375 22.822 44.9211 22.6415 44.7652 22.3216C44.5601 21.8868 44.0597 21.452 43.6332 21.329C43.2558 21.2142 38.7195 21.206 38.334 21.3208Z" fill="white"/>
<path d="M39.3348 29.8849C35.5695 30.5985 32.6492 33.5024 31.9355 37.2513C31.8699 37.604 31.8125 38.1536 31.8125 38.4735V39.0396L32.4934 39.0149L33.166 38.9903L33.2234 38.2849C33.4695 35.0528 35.8238 32.2638 39.0477 31.386C40.032 31.1153 41.968 31.1153 42.9523 31.386C46.1762 32.2638 48.5305 35.0528 48.7766 38.2849L48.834 38.9903L49.5148 39.0149L50.1875 39.0396V38.4735C50.1875 36.4474 49.1293 34.0356 47.5297 32.4442C46.4305 31.345 44.8309 30.4263 43.3379 30.0407C42.2961 29.77 40.352 29.6962 39.3348 29.8849Z" fill="white"/>
<path d="M39.8515 36.4802C38.7113 36.8493 37.9156 37.5384 37.407 38.5966C37.1363 39.179 37.1035 39.3102 37.0789 40.0649C37.0296 41.3774 37.3578 42.247 38.2273 43.1165C39.6711 44.5602 42.1566 44.6177 43.6332 43.2395C44.6011 42.3454 44.9785 41.402 44.9211 40.0403C44.8964 39.3184 44.8636 39.1708 44.5847 38.5966C43.9039 37.1528 42.5668 36.3161 40.9671 36.3325C40.5652 36.3325 40.1222 36.3899 39.8515 36.4802ZM42.0828 37.9485C43.3707 38.5802 43.9203 40.1388 43.2968 41.3938C42.3289 43.3134 39.6711 43.3134 38.7031 41.3938C38.0386 40.0485 38.7113 38.3915 40.155 37.8419C40.6308 37.6614 41.607 37.7188 42.0828 37.9485Z" fill="white"/>
<path d="M28.6953 39.1052C27.555 39.4743 26.7593 40.1634 26.2507 41.2216C25.98 41.804 25.9472 41.9352 25.9226 42.6899C25.8734 44.0024 26.2015 44.872 27.0711 45.7415C28.5148 47.1852 31.0004 47.2427 32.4769 45.8645C33.4449 44.9704 33.8222 44.027 33.7648 42.6653C33.7402 41.9434 33.7074 41.7958 33.4285 41.2216C32.7476 39.7778 31.4105 38.9411 29.8109 38.9575C29.4089 38.9575 28.966 39.0149 28.6953 39.1052ZM30.9265 40.5735C32.2144 41.2052 32.764 42.7638 32.1406 44.0188C31.1726 45.9384 28.5148 45.9384 27.5468 44.0188C26.8824 42.6735 27.555 41.0165 28.9988 40.4669C29.4746 40.2864 30.4507 40.3438 30.9265 40.5735Z" fill="white"/>
<path d="M51.0078 39.1052C49.8675 39.4743 49.0718 40.1634 48.5632 41.2216C48.2925 41.804 48.2597 41.9352 48.2351 42.6899C48.1859 44.0024 48.514 44.872 49.3836 45.7415C50.8273 47.1852 53.3129 47.2427 54.7894 45.8645C55.7574 44.9704 56.1347 44.027 56.0773 42.6653C56.0527 41.9434 56.0199 41.7958 55.741 41.2216C55.0601 39.7778 53.723 38.9411 52.1234 38.9575C51.7214 38.9575 51.2785 39.0149 51.0078 39.1052ZM53.239 40.5735C54.5269 41.2052 55.0765 42.7638 54.4531 44.0188C53.4851 45.9384 50.8273 45.9384 49.8593 44.0188C49.1949 42.6735 49.8675 41.0165 51.3113 40.4669C51.7871 40.2864 52.7632 40.3438 53.239 40.5735Z" fill="white"/>
<path d="M36.9148 45.0114C35.7254 45.3067 34.5441 46.0614 33.773 47.013L33.3957 47.4888L29.9176 47.4806C26.6855 47.4806 26.3902 47.4888 25.7832 47.6446C24.0441 48.0794 22.666 49.2032 21.8867 50.8028C21.3535 51.9021 21.2961 52.2712 21.3289 54.8552C21.3535 56.9716 21.3699 57.1521 21.5422 57.6114C21.9277 58.645 22.7152 59.5556 23.6914 60.097C24.6594 60.6302 24.6758 60.6384 28.7609 60.6712L32.4687 60.6958V59.9985V59.2931H29.5156H26.5625V55.6837V52.0743H25.9062H25.25V55.6345V59.2028L25.0039 59.129C24.5445 58.9978 23.9293 58.604 23.5601 58.2103C22.7726 57.3653 22.584 56.5204 22.6496 54.1661C22.6824 52.9603 22.7234 52.5829 22.8711 52.1153C23.232 50.9669 24.0605 49.9497 25.0777 49.4165C26.0703 48.8997 26.2508 48.8751 29.6633 48.8751H32.7312L32.682 49.0556C32.4851 49.761 32.4605 50.2696 32.4851 54.1251L32.5097 58.2677L32.7312 58.7353C33.1742 59.6868 34.1176 60.4087 35.1676 60.6056C35.4055 60.6466 36.0863 60.6876 36.6605 60.6876H37.7187V55.3966V50.1056H37.0625H36.4062V54.6993V59.2931H36.0125C35.1265 59.2931 34.4539 58.9239 34.0601 58.2103L33.8222 57.7755V53.92V50.0646L34.0519 49.4247C34.4703 48.2353 35.2332 47.3165 36.2422 46.7915C37.2347 46.2665 37.3906 46.2501 41 46.2501C44.5683 46.2501 44.7406 46.2665 45.6922 46.7505C46.291 47.054 47.0621 47.7595 47.4476 48.3583C47.6035 48.588 47.825 49.072 47.948 49.4247L48.1777 50.0646V53.92V57.7755L47.9398 58.2103C47.5461 58.9239 46.8734 59.2931 45.9875 59.2931H45.5937V54.6993V50.1056H44.9375H44.2812V55.3966V60.6876H45.3394C45.9137 60.6876 46.5945 60.6466 46.8324 60.6056C47.8824 60.4087 48.8258 59.6868 49.2687 58.7353L49.4902 58.2677L49.5148 54.1087C49.5312 50.5813 49.5148 49.8759 49.4082 49.4575C49.3426 49.195 49.2851 48.9489 49.2851 48.9243C49.2851 48.8997 50.6633 48.8751 52.3449 48.8751C55.7 48.8751 55.8969 48.8997 56.8484 49.3755C57.4473 49.679 58.2183 50.3845 58.6039 50.9833C58.7598 51.213 58.973 51.697 59.0961 52.0497C59.2848 52.6157 59.3176 52.8536 59.3504 54.1661C59.416 56.5286 59.2273 57.3735 58.4398 58.2103C58.0707 58.604 57.4555 58.9978 56.9961 59.129L56.75 59.2028V55.6345V52.0743H56.0937H55.4375V55.6837V59.2931H52.4844H49.5312V59.9985V60.6958L53.2473 60.6712C56.5285 60.6384 57.0043 60.622 57.4062 60.4907C58.891 60.0149 60.0394 58.8829 60.4824 57.472C60.6793 56.8485 60.6875 56.7337 60.6875 54.6665C60.6875 52.788 60.6629 52.4271 60.5234 51.8774C59.9984 49.8103 58.3332 48.1778 56.2168 47.6446C55.6098 47.4888 55.3144 47.4806 52.0824 47.4806L48.6043 47.4888L48.1613 46.9474C47.3738 45.9958 46.332 45.3478 45.0687 45.0196C44.4617 44.8638 44.1746 44.8556 40.9672 44.8638C37.9402 44.8638 37.4398 44.8884 36.9148 45.0114Z" fill="white"/>
<path d="M38.375 59.9902V60.6875H41H43.625V59.9902V59.293H41H38.375V59.9902Z" fill="white"/>
</svg>
