<svg width="50" height="51" viewBox="0 0 50 51" fill="none" xmlns="http://www.w3.org/2000/svg">
<path d="M0 24.7062C0 13.2085 0 7.45965 3.57187 3.88779C7.14374 0.315918 12.8926 0.315918 24.3902 0.315918H25.6098C37.1074 0.315918 42.8563 0.315918 46.4281 3.88779C50 7.45965 50 13.2085 50 24.7062V25.9257C50 37.4233 50 43.1722 46.4281 46.744C42.8563 50.3159 37.1074 50.3159 25.6098 50.3159H24.3902C12.8926 50.3159 7.14374 50.3159 3.57187 46.744C0 43.1722 0 37.4233 0 25.9257V24.7062Z" fill="#E5F4F2"/>
<path d="M34.8026 12.5796C32.698 12.941 30.9256 14.1474 29.8367 15.9593C29.5926 16.3647 29.5535 16.4135 29.4217 16.4135C29.0115 16.4135 28.2351 16.6821 27.825 16.9654L27.659 17.0777L27.0925 16.8873C26.3601 16.6431 25.5496 16.4379 24.9001 16.3354C24.1677 16.223 23.0251 16.2572 22.6394 16.4086C22.029 16.6431 21.6726 17.0094 21.57 17.5124C21.5359 17.6785 21.5212 18.3378 21.531 19.3781L21.5456 20.98L21.6775 21.2584C22.1755 22.3231 23.4206 23.4757 25.2322 24.5453C26.575 25.3365 28.03 26.0203 29.2849 26.4403C31.1648 27.0752 32.4978 27.2119 33.3133 26.8652C33.4207 26.8163 34.0066 26.411 34.6121 25.9616C36.2918 24.7065 36.3406 24.6479 36.3406 23.8615C36.3406 23.4171 36.326 23.3438 36.1844 23.0459C35.8621 22.3622 35.3055 21.6735 34.5291 20.9996C34.0506 20.5844 33.1814 19.9202 32.8982 19.7541C32.7615 19.6711 32.7518 19.6418 32.7518 19.3927C32.7518 18.836 32.5027 18.1424 32.1365 17.6638L31.9559 17.4245L32.0437 17.2633C32.2244 16.9263 32.7566 16.3158 33.1277 16.0277C33.5672 15.676 34.2313 15.339 34.7537 15.1925C34.9539 15.1388 35.3885 15.0704 35.7108 15.0509C36.3651 15.0021 36.575 14.9288 36.8533 14.6455C37.0926 14.4062 37.1951 14.1474 37.1951 13.7615C37.1951 13.3659 37.1073 13.1364 36.8631 12.8775C36.5653 12.5698 36.3797 12.5064 35.7303 12.5112C35.4227 12.5161 35.0027 12.5454 34.8026 12.5796ZM36.2039 13.4929C36.3162 13.5955 36.3504 13.7811 36.2869 13.9471C36.2332 14.079 35.994 14.1669 35.6668 14.1669C34.7147 14.1669 33.5184 14.5918 32.7176 15.2072C31.8973 15.8372 31.1062 16.9263 30.7254 17.9422C30.5691 18.3524 30.2078 18.4306 29.9881 18.0985C29.9148 17.991 29.9148 17.9422 29.9637 17.7664C30.0711 17.405 30.3933 16.7652 30.7156 16.2768C31.8875 14.4941 33.7479 13.4099 35.6522 13.3903C36.0379 13.3855 36.1014 13.4001 36.2039 13.4929ZM24.866 17.2243C25.613 17.3512 27.0144 17.7468 26.9802 17.8201C26.9705 17.8396 26.8923 17.991 26.8045 18.1571C26.6873 18.3866 26.6482 18.5234 26.6482 18.709C26.6482 19.1534 26.7898 19.3195 27.4929 19.6809C27.8884 19.886 28.0105 19.93 28.2254 19.93C28.6013 19.93 28.7869 19.7932 29.1043 19.2999C29.1629 19.2071 29.2801 19.0899 29.3679 19.0411C29.5193 18.9483 29.5242 18.9483 29.7195 19.046C29.8269 19.1046 29.949 19.1485 29.9832 19.1485C30.0613 19.1485 30.2127 19.4269 30.2127 19.5588C30.2127 19.6027 30.1541 19.7737 30.0857 19.9446C29.9344 20.3011 29.9441 20.604 30.1101 20.8775C30.198 21.0191 30.3348 21.1119 30.8133 21.3512C31.3455 21.6198 31.4334 21.6442 31.6385 21.6247C32.0047 21.5905 32.2293 21.4098 32.4197 21.0044C32.5076 20.8188 32.5955 20.6626 32.6199 20.6626C32.6834 20.6626 33.3768 21.1851 33.8602 21.6003C35.3299 22.8603 35.8768 24.0081 35.1883 24.3792C34.9832 24.4867 34.5389 24.5209 34.0701 24.4672C32.5271 24.2865 29.4998 23.085 26.9412 21.6345C26.4334 21.3463 26.1941 21.3024 26.0183 21.4635C25.8914 21.5807 25.8425 21.8054 25.9158 21.9763C25.9793 22.1326 26.4285 22.4012 27.9177 23.168C28.865 23.6613 29.7195 24.0471 30.6424 24.4037C31.4773 24.726 32.825 25.1509 33.2889 25.2339C33.9529 25.356 33.9481 25.3365 33.45 25.7028C33.2107 25.8835 32.952 26.0544 32.8738 26.0886C32.7908 26.1228 32.5125 26.1472 32.2391 26.1472C29.6609 26.1472 24.4119 23.5246 22.864 21.4684C22.7615 21.3317 22.615 21.0923 22.5417 20.9312C22.4099 20.6626 22.4001 20.5942 22.4001 20.0863V19.5344L22.8396 19.9348C23.3376 20.3939 23.9236 20.8433 24.1042 20.9116C24.4802 21.0582 24.8318 20.643 24.6316 20.2865C24.5974 20.2279 24.3777 20.0325 24.1335 19.8518C23.533 19.4074 22.7517 18.6064 22.5857 18.2694C22.405 17.908 22.405 17.6443 22.5808 17.4685C22.9372 17.1119 23.6941 17.0289 24.866 17.2243ZM29.1092 17.4733C29.0896 17.5515 29.0652 17.7371 29.0603 17.8934C29.0506 18.1571 29.0359 18.1864 28.909 18.2548C28.7088 18.3573 28.4109 18.6553 28.3035 18.8701L28.2107 19.0509L27.8689 18.8799L27.5271 18.709L27.6052 18.5478C27.8591 18.0594 28.284 17.6638 28.782 17.4587C29.1385 17.3122 29.158 17.3122 29.1092 17.4733ZM31.7264 18.7383C31.8289 18.9825 31.8484 19.1046 31.8484 19.5392C31.8484 19.9642 31.8289 20.1058 31.7312 20.3598C31.6678 20.5258 31.5994 20.6772 31.575 20.687C31.5555 20.7016 31.3846 20.643 31.199 20.56L30.8572 20.4086L30.9549 20.1888C31.0769 19.9104 31.1209 19.4806 31.0525 19.2267C30.9988 19.0411 31.0037 19.0313 31.2088 18.8311C31.326 18.7187 31.4383 18.5771 31.4578 18.5185C31.5066 18.3524 31.5945 18.4208 31.7264 18.7383Z" fill="#009379"/>
<path d="M22.1316 24.1839C19.2067 24.3206 16.487 25.2046 14.5876 26.6308C14.2018 26.9189 13.4889 27.6124 13.2253 27.9543C12.7712 28.5501 12.4196 29.2779 12.2731 29.9274C12.1608 30.4354 12.1706 31.3242 12.2975 31.8468C12.8151 34.0202 15.0905 35.9005 18.3962 36.8919C19.2312 37.1459 20.3933 37.3657 21.4187 37.4634C22.073 37.5269 23.9333 37.5269 24.6218 37.4634C29.2654 37.0287 32.9275 34.8211 33.7381 31.9689C33.8309 31.6368 33.8504 31.4659 33.8455 30.8212C33.8406 30.1423 33.8309 30.0202 33.7088 29.6246C33.5428 29.0678 33.24 28.4574 32.9471 28.0959C32.7517 27.8566 32.698 27.8176 32.532 27.8029C32.2879 27.7834 32.1316 27.8664 32.0681 28.0618C32.0047 28.2571 32.034 28.3401 32.3758 28.853C32.5467 29.1118 32.698 29.4244 32.8055 29.7321C32.9519 30.1716 32.9666 30.2595 32.9666 30.8212C32.9715 31.3291 32.9519 31.4952 32.8592 31.798C32.4197 33.2046 31.2381 34.3962 29.407 35.29C27.5466 36.1935 25.4617 36.6331 23.0349 36.6331C21.4724 36.6331 20.3249 36.4915 18.8942 36.1154C16.028 35.373 13.8258 33.7369 13.235 31.9201C13.0544 31.3535 13.0251 30.6014 13.1667 30.0349C13.528 28.5941 14.7829 27.295 16.736 26.3573C18.3229 25.5954 20.1882 25.1607 22.3171 25.0581C22.8347 25.0337 23.2937 24.9995 23.3425 24.98C23.4353 24.9458 23.572 24.7162 23.572 24.5941C23.572 24.3451 23.2937 24.1155 23.0154 24.1399C22.9568 24.1399 22.5613 24.1595 22.1316 24.1839Z" fill="#009379"/>
<path d="M22.1804 26.2597C21.0036 26.3769 20.2028 26.5332 19.4265 26.7969C16.9704 27.6369 15.6276 29.2535 15.9792 30.9434C16.3454 32.6967 18.3571 34.0496 21.2526 34.4891C22.0583 34.6112 23.6941 34.6405 24.4509 34.5429C26.5261 34.2742 28.1521 33.5905 29.1628 32.56C29.8123 31.8957 30.0662 31.3585 30.1052 30.5722C30.1297 29.991 30.0613 29.654 29.8172 29.1656C29.1287 27.7883 27.1951 26.7139 24.7439 26.3525C24.2507 26.2792 22.5857 26.2206 22.1804 26.2597ZM23.7966 27.2267C24.0749 27.3146 24.3337 27.4758 24.4363 27.6272C24.4949 27.72 24.49 27.7493 24.3825 27.8763C24.1091 28.1986 23.2839 28.394 22.6394 28.2865C22.2048 28.2132 21.8679 28.0716 21.6872 27.886C21.5651 27.759 21.5603 27.7346 21.614 27.6272C21.7019 27.4709 22.0876 27.2658 22.4636 27.1827C22.8249 27.0997 23.4353 27.1192 23.7966 27.2267ZM20.7058 27.6028L20.6814 27.8274L20.403 27.7151C20.2517 27.6516 20.1003 27.5979 20.0612 27.5979C19.9245 27.5979 20.0515 27.5393 20.3835 27.4562C20.5642 27.4074 20.7204 27.3683 20.7253 27.3732C20.7253 27.3781 20.7204 27.4807 20.7058 27.6028ZM26.0574 27.5783C26.0671 27.5881 26.0378 27.5979 25.9841 27.5979C25.9353 27.5979 25.7742 27.6516 25.6374 27.72C25.3982 27.8274 25.3786 27.8323 25.3786 27.7493C25.3786 27.7004 25.364 27.593 25.3493 27.51L25.3201 27.3586L25.6765 27.4562C25.8767 27.51 26.0476 27.5637 26.0574 27.5783ZM20.0856 28.5551C20.6228 28.8286 20.6228 29.1119 20.0808 29.3805C19.8122 29.5173 19.7487 29.527 19.2751 29.527C18.821 29.527 18.7282 29.5124 18.4841 29.3952C18.0007 29.1705 17.9323 28.8823 18.3034 28.6381C18.5915 28.4477 18.8991 28.3793 19.3825 28.394C19.739 28.4086 19.8513 28.433 20.0856 28.5551ZM27.3367 28.4574C27.615 28.5405 27.8835 28.7114 27.9666 28.8677C28.1375 29.1852 27.4978 29.5514 26.7703 29.5514C25.9353 29.5514 25.3054 29.0777 25.6863 28.7358C26.0427 28.4086 26.7556 28.2865 27.3367 28.4574ZM23.7673 29.2779C24.5827 29.4538 25.1638 29.9129 25.0661 30.3085C25.0173 30.5038 24.7488 30.7676 24.4411 30.9238C24.0407 31.1241 23.5866 31.2169 23.0105 31.2169C21.8972 31.212 20.9841 30.7529 20.9841 30.201C20.9841 29.8591 21.5749 29.4342 22.2536 29.2877C22.6638 29.1949 23.3669 29.1949 23.7673 29.2779ZM17.322 29.5026C17.4391 29.7322 17.7663 30.0594 17.9665 30.1424L18.113 30.201L17.9714 30.2792C17.6052 30.4745 17.3806 30.748 17.2438 31.1485L17.1315 31.4806L17.0095 31.2071C16.7458 30.6357 16.7507 30.1473 17.0339 29.5905C17.112 29.4342 17.1852 29.3073 17.1999 29.3073C17.2097 29.3073 17.2682 29.3952 17.322 29.5026ZM29.0505 29.6345C29.197 29.9373 29.2117 30.0008 29.2117 30.4306C29.2117 30.8457 29.197 30.9238 29.0652 31.1876L28.9236 31.4806L28.865 31.2804C28.738 30.8359 28.4158 30.4257 28.0886 30.2743C27.9714 30.2206 27.9714 30.2206 28.1765 30.0887C28.4207 29.9373 28.738 29.5808 28.7771 29.4196C28.7966 29.3561 28.8259 29.3073 28.8455 29.3073C28.8699 29.3073 28.9627 29.4538 29.0505 29.6345ZM19.9733 30.9922C20.237 31.085 20.4958 31.3194 20.4958 31.466C20.4958 31.5197 20.4177 31.6418 20.32 31.7297C19.861 32.1644 18.6843 32.1595 18.2204 31.7248C18.1276 31.6369 18.0544 31.5246 18.0544 31.466C18.0544 31.378 18.3913 31.0215 18.4841 31.0166C18.5036 31.0118 18.6306 30.9824 18.7624 30.9434C19.0651 30.8555 19.6462 30.8799 19.9733 30.9922ZM27.5613 31.0459C27.7175 31.1241 27.8835 31.2462 27.9324 31.3146C28.0203 31.4367 28.0203 31.4513 27.947 31.5978C27.7224 32.0276 26.697 32.1986 26.0329 31.9202C25.5154 31.7053 25.4372 31.3683 25.8425 31.1143C26.3015 30.831 27.073 30.8017 27.5613 31.0459ZM23.9822 32.2913C24.363 32.4379 24.6462 32.7065 24.6462 32.9116C24.6462 33.4195 23.5573 33.8493 22.6394 33.7077C21.9411 33.5954 21.321 33.1851 21.3991 32.8823C21.4626 32.6283 21.7751 32.389 22.2439 32.2327C22.6491 32.096 23.5769 32.1302 23.9822 32.2913ZM20.5056 32.8237C20.4958 32.9067 20.5105 33.0728 20.5398 33.1949C20.5739 33.3219 20.5886 33.4293 20.5788 33.4391C20.5544 33.4684 19.778 33.234 19.4509 33.1021L19.1677 32.9849L19.5778 32.9311C19.8024 32.9018 20.0954 32.8335 20.2272 32.7846C20.364 32.7309 20.486 32.6869 20.5007 32.6821C20.5153 32.6772 20.5202 32.7456 20.5056 32.8237ZM26.4871 32.936C26.8826 32.9849 26.8923 32.9898 26.741 33.0532C26.5603 33.1265 25.7497 33.3951 25.5593 33.4391C25.4275 33.4684 25.4275 33.4684 25.4812 33.3316C25.5105 33.2535 25.5349 33.0777 25.5349 32.9409L25.5398 32.6869L25.8083 32.7846C25.9548 32.8384 26.2624 32.9018 26.4871 32.936Z" fill="#009379"/>
</svg>
