<svg width="50" height="51" viewBox="0 0 50 51" fill="none" xmlns="http://www.w3.org/2000/svg">
<path d="M0 25.0111C0 13.5134 0 7.76459 3.57187 4.19272C7.14374 0.62085 12.8926 0.62085 24.3902 0.62085H25.6098C37.1074 0.62085 42.8563 0.62085 46.4281 4.19272C50 7.76459 50 13.5134 50 25.0111V26.2306C50 37.7283 50 43.4771 46.4281 47.049C42.8563 50.6208 37.1074 50.6208 25.6098 50.6208H24.3902C12.8926 50.6208 7.14374 50.6208 3.57187 47.049C0 43.4771 0 37.7283 0 26.2306V25.0111Z" fill="#E5F4F2"/>
<path d="M28.5037 16.8296C28.1375 17.0786 28.0007 17.4302 28.0056 18.148L28.0105 18.6167L27.7078 18.7388C27.283 18.9097 27.0339 18.9683 26.5798 19.0171C25.7742 19.1001 24.988 18.9438 23.7917 18.4653C22.6541 18.0112 22.073 17.8989 20.9304 17.894C20.115 17.894 19.7195 17.9722 19.1042 18.2554C17.5515 18.9731 16.1453 20.7163 15.2566 23.021C14.866 24.0269 14.5388 25.4136 14.5388 26.0483C14.5388 26.2192 14.4949 26.3755 14.3679 26.6196C13.9626 27.4204 13.7576 28.3726 13.7576 29.4614C13.7576 29.9692 13.782 30.228 13.8503 30.5015C14.3679 32.5278 16.7996 33.9097 19.8464 33.9097C21.6873 33.9097 23.1814 33.4946 24.4998 32.6206C25.0222 32.269 25.7449 31.5854 25.8474 31.3364C25.9792 31.0239 25.7449 30.7261 25.4031 30.7798C25.3494 30.7896 24.9539 30.9019 24.5242 31.0288C22.0583 31.771 20.2029 32.0591 19.2654 31.8394C18.1667 31.5854 16.9021 30.8237 16.3601 30.0815C16.1453 29.7886 16.1404 29.7788 16.1599 29.4663C16.1794 29.0708 16.3943 28.5923 16.6873 28.2749L16.8972 28.0503H17.4832H18.0691L18.3572 28.3628C18.5281 28.5483 18.7283 28.7095 18.8406 28.7534C19.0017 28.8218 19.4363 28.8315 22.0681 28.8364C25.3445 28.8462 25.4031 28.8413 25.6814 28.5923C25.8181 28.4702 25.8376 28.4214 25.8572 28.1333C25.8718 27.9233 25.8523 27.7378 25.8035 27.5913L25.7302 27.3716L26.0281 27.2788L26.3308 27.186L27.1609 28.0015L27.991 28.8218L28.6355 28.856C29.3484 28.8901 30.5251 28.8511 30.8181 28.7729C30.9255 28.7485 31.0867 28.6509 31.1746 28.563C31.3259 28.4116 31.3357 28.3823 31.3357 28.0454C31.3357 27.8013 31.3064 27.6206 31.2429 27.4839C31.0378 27.0347 30.5154 26.6978 29.7781 26.5464L29.3826 26.4634V26.2388C29.3826 26.019 29.3923 25.9995 29.6267 25.8286C30.2078 25.4038 30.95 24.2515 31.5066 22.9087C31.5994 22.6841 31.6677 22.5815 31.7263 22.5815C31.7751 22.5815 32.0242 22.5278 32.283 22.4644C33.7039 22.103 35.1589 21.0044 35.5496 20.0034C35.6521 19.7495 35.657 19.2222 35.5642 18.9976C35.408 18.6167 34.9246 18.2358 34.324 18.0112C33.6257 17.7476 32.2585 17.5034 31.4675 17.5034C31.1648 17.5034 31.1062 17.4839 30.7595 17.2837C30.1345 16.9175 29.6755 16.7612 29.1384 16.7368C28.7087 16.7124 28.6599 16.7222 28.5037 16.8296ZM29.5339 17.645C29.8367 17.7476 30.3445 17.9966 30.6082 18.1724C30.7693 18.2798 30.8669 18.2944 31.5115 18.3335C33.03 18.4312 34.2019 18.7339 34.6462 19.1489C34.949 19.437 34.822 19.8374 34.2458 20.4136C33.533 21.1313 32.5173 21.6343 31.5701 21.7563C31.3503 21.7808 31.1355 21.8247 31.0916 21.8491C31.0476 21.8735 30.906 22.1519 30.7742 22.4692C30.1833 23.939 29.4753 24.9937 28.8894 25.2964C28.7625 25.355 28.6501 25.4429 28.6306 25.4868C28.616 25.5308 28.6013 25.9067 28.6013 26.3218C28.6013 27.0103 28.6111 27.0835 28.699 27.1714C28.7527 27.2251 28.8259 27.269 28.8601 27.269C29.1042 27.269 29.7781 27.3862 29.9929 27.4692C30.2468 27.562 30.5056 27.7915 30.5056 27.9233C30.5056 28.0015 29.9587 28.0503 29.0652 28.0503H28.4304L27.6882 27.3032L26.9509 26.561L26.5554 25.7749C26.3406 25.3403 26.1306 24.9741 26.0867 24.9546C25.9646 24.9106 25.7253 24.9204 25.6277 24.9741C25.5789 24.9985 25.5105 25.0864 25.4763 25.1694C25.4177 25.311 25.4324 25.355 25.6863 25.8774L25.9597 26.439L25.7058 26.5122C25.2712 26.644 24.8757 26.6587 24.3777 26.561L23.9236 26.4683L23.8894 26.1802C23.8162 25.5063 23.4548 24.564 23.03 23.9438C22.7615 23.5435 22.2146 22.9771 21.8875 22.7524C21.6628 22.5962 21.5994 22.5718 21.4529 22.6011C21.2527 22.6401 21.1306 22.7866 21.1306 22.9868C21.1306 23.187 21.1843 23.2651 21.5212 23.5337C21.9265 23.8608 22.3855 24.4419 22.6394 24.9546C22.8738 25.4233 23.0837 26.1802 23.0837 26.5562C23.0837 26.8882 23.1619 27.1567 23.2791 27.2202C23.3279 27.2446 23.5623 27.2886 23.8015 27.313C24.3435 27.3716 24.6511 27.479 24.866 27.6841C25.1638 27.9624 25.1248 27.9868 24.3435 28.0259C23.9578 28.0405 22.6394 28.0503 21.4089 28.0405L19.1677 28.0259L19.0652 27.894C19.0066 27.8208 18.9041 27.6938 18.8406 27.6108C18.782 27.5278 18.6404 27.4155 18.533 27.3618C18.3572 27.269 18.2644 27.2642 17.449 27.2788L16.5554 27.2935L16.3455 27.4399C16.0525 27.6401 15.6912 28.1479 15.5056 28.6118C15.3835 28.9194 15.3494 29.0952 15.3298 29.4565C15.3103 29.8862 15.3152 29.9253 15.4617 30.2231C15.6619 30.6284 16.2136 31.2144 16.7703 31.6099C17.2976 31.9907 18.1277 32.396 18.7136 32.5718C19.6316 32.8403 20.9402 32.7769 22.7078 32.3813C23.1033 32.2886 23.4255 32.2251 23.4255 32.2349C23.4255 32.269 22.7273 32.5767 22.3318 32.7085C19.6414 33.6362 16.2869 32.8892 15.0564 31.0874C14.7 30.5649 14.5876 30.1938 14.5876 29.4858C14.5876 28.5239 14.7732 27.6694 15.1345 26.9858C15.3152 26.6392 15.3298 26.5659 15.3738 26.063C15.4226 25.3989 15.6033 24.5737 15.8621 23.7778C16.1013 23.0649 16.7166 21.7905 17.1169 21.1899C17.7664 20.2183 18.5818 19.4468 19.3435 19.0708C19.9148 18.7925 20.2517 18.7192 20.9695 18.7192C21.946 18.7241 22.4587 18.8315 23.4548 19.2368C24.5779 19.6958 25.2615 19.8521 26.1843 19.8569C26.9412 19.8569 27.6443 19.7153 28.1619 19.4565L28.3376 19.3687L28.4988 19.564C28.7283 19.8325 28.9382 19.9204 29.158 19.8276C29.4656 19.7007 29.4851 19.2954 29.1873 19.0757C28.9968 18.9341 28.8406 18.4995 28.8357 18.0942C28.8259 17.5376 28.9675 17.4497 29.5339 17.645Z" fill="#009379"/>
<path d="M31.697 19.0366C31.5505 19.1831 31.531 19.2319 31.531 19.4565C31.531 19.6812 31.5505 19.73 31.697 19.8765C31.8435 20.0229 31.8923 20.0425 32.1169 20.0425C32.3416 20.0425 32.3904 20.0229 32.5369 19.8765C32.6833 19.73 32.7029 19.6812 32.7029 19.4565C32.7029 19.2319 32.6833 19.1831 32.5369 19.0366C32.3904 18.8901 32.3416 18.8706 32.1169 18.8706C31.8923 18.8706 31.8435 18.8901 31.697 19.0366Z" fill="#009379"/>
</svg>
