<svg width="50" height="51" viewBox="0 0 50 51" fill="none" xmlns="http://www.w3.org/2000/svg">
<path d="M0 24.7062C0 13.2085 0 7.45965 3.57187 3.88779C7.14374 0.315918 12.8926 0.315918 24.3902 0.315918H25.6098C37.1074 0.315918 42.8563 0.315918 46.4281 3.88779C50 7.45965 50 13.2085 50 24.7062V25.9257C50 37.4233 50 43.1722 46.4281 46.744C42.8563 50.3159 37.1074 50.3159 25.6098 50.3159H24.3902C12.8926 50.3159 7.14374 50.3159 3.57187 46.744C0 43.1722 0 37.4233 0 25.9257V24.7062Z" fill="#E5F4F2"/>
<path d="M19.4221 13.0432L17.1049 13.5975L15.7513 16.1033C14.9942 17.5002 14.4435 18.6755 14.5124 18.7642C14.6041 18.8307 15.5219 19.119 16.5772 19.3851L18.5044 19.8729L18.5733 21.026C18.6191 21.9795 18.7109 22.2012 19.0551 22.2012C19.4221 22.2012 19.491 21.8908 19.6057 19.496C19.6745 18.0103 19.6975 16.7463 19.6516 16.702C19.3763 16.4359 18.8486 17.2342 18.8486 17.9216C18.8486 18.8751 18.5044 19.0081 16.9214 18.5646C15.6366 18.1877 15.453 18.0324 15.8431 17.6333C15.9578 17.5224 16.3937 16.835 16.7837 16.1033C17.1967 15.3715 17.6555 14.6619 17.7932 14.5289C17.9309 14.3958 18.7568 14.1075 19.6057 13.8858L21.1658 13.4867L22.0376 14.3071C22.7259 14.9502 23.1389 15.1498 24.0566 15.2385C25.525 15.4158 26.695 15.0389 27.4751 14.1519L28.0716 13.4645L29.7923 13.908L31.536 14.3293L32.6373 16.2141L33.7615 18.099L33.0502 18.3872C32.6602 18.5424 31.9719 18.6977 31.5131 18.7198C30.733 18.7642 30.6871 18.742 30.4347 17.7663C30.1365 16.5911 29.4941 16.3472 29.5629 17.4337C29.5858 17.7885 29.6776 18.9194 29.7694 19.8951L29.93 21.6912L29.104 21.8465C28.6452 21.9351 28.0028 22.2899 27.6128 22.6669C27.0392 23.2434 26.8556 23.31 26.4656 23.1104C25.4332 22.5782 23.9419 22.9774 23.4142 23.8865C23.1848 24.3078 22.9324 24.4187 22.2671 24.4187C21.7853 24.4187 21.1429 24.5296 20.8217 24.6626C20.3399 24.8844 20.1793 24.84 19.6975 24.3522C19.3992 24.0196 18.688 23.6648 18.1373 23.5095C17.2426 23.2656 16.9902 23.31 16.0495 23.7091C14.673 24.2856 14.1453 25.0618 14.1453 26.5696C14.1453 27.6118 14.0994 27.7449 13.6864 27.7449C12.7916 27.7449 12.1951 28.3658 12.1951 29.2971C12.1951 30.8049 12.8834 31.1376 15.7513 31.0267C17.2655 30.9823 17.5867 30.8936 17.6555 30.5832C17.7244 30.2506 17.472 30.1841 15.476 30.1397L13.2276 30.0732V29.408V28.7427H24.699H36.1705V29.408V30.0732L28.9434 30.1397C21.9459 30.1841 20.7069 30.3171 21.6017 30.8493C21.7853 30.9823 24.6072 31.071 27.9798 31.071C33.6238 31.071 34.0138 31.0932 33.9221 31.448C33.8532 31.6698 33.6238 32.8007 33.4173 33.9537C33.1879 35.1068 32.9126 36.1934 32.7749 36.3264C32.6143 36.5481 30.7101 36.6147 24.6761 36.6147H16.7837L16.5543 36.0603C16.4396 35.772 16.2101 34.8629 16.0725 34.0424C15.8431 32.712 15.4071 32.0911 15.0171 32.4902C14.7188 32.7563 15.6595 36.5038 16.1413 37.0138L16.6231 37.5016H24.699C34.5186 37.5016 33.532 37.8786 34.335 33.8429C34.9086 31.0267 34.8857 31.071 35.3904 31.071C35.9181 31.071 36.767 30.6719 37.0194 30.3171C37.2717 29.9623 37.2488 28.8979 36.9735 28.4101C36.8358 28.1662 36.3769 27.9223 35.941 27.8336C35.161 27.7005 35.138 27.6562 35.138 26.7027C35.138 25.5052 34.3809 24.6404 33.3485 24.6404C32.7749 24.6404 32.6602 24.5296 32.5225 23.953C32.4537 23.5761 32.0178 22.9108 31.5819 22.4895C30.9165 21.8465 30.7789 21.5582 30.7789 20.7821V19.8286L31.9949 19.5625C34.2203 19.0968 34.9086 18.8529 34.9086 18.5868C34.9086 18.232 32.1784 13.5532 31.9719 13.5532C31.8801 13.5532 30.8936 13.3093 29.7465 13.021L27.6816 12.511L26.7409 13.4645C25.9379 14.3293 25.6856 14.4402 24.8367 14.4402C23.6895 14.4402 22.6112 13.9523 22.4047 13.3536C22.1294 12.511 21.7853 12.4888 19.4221 13.0432ZM30.6183 22.9108C31.4672 23.3321 31.7195 23.7978 31.5819 24.6848C31.4442 25.6161 31.6507 25.8379 32.4308 25.5496C33.5091 25.1505 34.6792 26.237 34.335 27.3236C34.1974 27.7227 33.7615 27.7449 24.699 27.7449C16.279 27.7449 15.2006 27.7005 15.0859 27.3901C14.5812 26.1483 15.5219 24.5517 16.8755 24.2856C17.9079 24.1082 18.9862 24.6848 19.468 25.6383C19.9269 26.5474 20.271 26.614 20.7758 25.86C21.2117 25.1948 22.3588 25.1061 23.0012 25.6605C23.506 26.104 23.896 25.8822 23.896 25.1726C23.896 24.4852 24.6531 23.7535 25.3873 23.7535C25.7085 23.7535 26.2362 23.9974 26.5574 24.33C27.2916 25.0174 27.5669 24.9509 27.8881 23.9752C28.2781 22.8221 29.54 22.3343 30.6183 22.9108Z" fill="#009379"/>
</svg>
