<svg width="50" height="51" viewBox="0 0 50 51" fill="none" xmlns="http://www.w3.org/2000/svg">
<path d="M0 24.7062C0 13.2085 0 7.45965 3.57187 3.88779C7.14374 0.315918 12.8926 0.315918 24.3902 0.315918H25.6098C37.1074 0.315918 42.8563 0.315918 46.4281 3.88779C50 7.45965 50 13.2085 50 24.7062V25.9257C50 37.4233 50 43.1722 46.4281 46.744C42.8563 50.3159 37.1074 50.3159 25.6098 50.3159H24.3902C12.8926 50.3159 7.14374 50.3159 3.57187 46.744C0 43.1722 0 37.4233 0 25.9257V24.7062Z" fill="#E5F4F2"/>
<path d="M23.6001 12.8935C22.7655 13.0304 21.7779 13.3922 21.0067 13.8419L20.6846 14.0326H19.1529C18.3078 14.0326 17.4891 14.057 17.336 14.0815C16.4328 14.2379 15.7039 14.937 15.5455 15.8023C15.5085 16.0125 15.4926 17.4547 15.5032 20.3145L15.5191 24.5188L15.6405 24.7925C15.8201 25.213 16.137 25.5845 16.5015 25.8094C16.9081 26.0587 17.2303 26.1516 17.8747 26.1907L18.387 26.22L17.9856 26.4645C17.431 26.7969 16.8817 27.3249 16.6705 27.7208C16.4275 28.1804 16.3694 28.547 16.4381 29.1777C16.549 30.1749 16.924 31.1331 17.5525 32.0033C17.9698 32.5851 19.0367 33.5383 19.7074 33.9294L20.2515 34.2472L20.2198 34.6872C20.1194 36.1684 20.1247 36.4813 20.2409 36.7746C20.3835 37.1217 20.7268 37.4835 21.1018 37.6693L21.3817 37.8159H24.9997H28.6177L28.8976 37.6693C29.2726 37.4835 29.6159 37.1217 29.7585 36.7746C29.8747 36.4813 29.88 36.1684 29.7796 34.6872L29.7479 34.2472L30.292 33.9294C30.9627 33.5383 32.0296 32.5851 32.4469 32.0033C33.0754 31.1331 33.4504 30.1749 33.5613 29.1777C33.63 28.547 33.5719 28.1804 33.3289 27.7208C33.1177 27.3249 32.5684 26.7969 32.0138 26.4645L31.6124 26.22L32.1247 26.1907C32.7691 26.1516 33.0913 26.0587 33.4979 25.8094C33.8624 25.5845 34.1793 25.213 34.3589 24.7925L34.4803 24.5188L34.4962 20.3145C34.5068 17.4449 34.4962 16.0125 34.4539 15.8023C34.2955 14.937 33.5666 14.2379 32.6634 14.0815C32.5103 14.057 31.6916 14.0326 30.8465 14.0326H29.3148L28.9927 13.8419C28.1951 13.3775 27.2286 13.0255 26.3465 12.8886C25.7391 12.7909 24.1969 12.7909 23.6001 12.8935ZM26.6423 13.8517C29.3571 14.5117 30.8994 16.5796 31.2321 19.9968C31.38 21.5269 31.211 22.9153 30.7251 24.2157C30.5508 24.6703 30.1018 25.5698 30.0437 25.5698C30.0279 25.5698 29.7638 25.5014 29.4522 25.4232C28.8448 25.2667 27.8201 25.0761 27.0067 24.9734C26.336 24.8903 23.6634 24.8903 22.9927 24.9734C22.1634 25.081 21.1335 25.2667 20.5525 25.4232C20.2515 25.5014 19.9927 25.5698 19.9715 25.5698C19.9029 25.5698 19.4698 24.7241 19.2743 24.2157C18.6775 22.6171 18.5613 20.8376 18.9258 18.8968C19.4222 16.2618 20.9064 14.5019 23.1194 13.9104C23.7955 13.7295 24.1599 13.6953 25.1582 13.7099C25.9979 13.7246 26.2092 13.7442 26.6423 13.8517ZM19.6652 14.9566C19.6652 14.981 19.6282 15.025 19.586 15.0592C19.4486 15.1668 18.968 15.9001 18.7409 16.3498C18.1493 17.5231 17.843 18.9017 17.7796 20.6323C17.7215 22.27 17.9592 23.5997 18.5349 24.9294L18.7145 25.3401L18.1177 25.3156C17.262 25.2765 16.9187 25.1201 16.6282 24.6361L16.4698 24.3721V20.119V15.8658L16.5912 15.6361C16.7444 15.3476 17.0772 15.0788 17.3941 14.9859C17.6634 14.9126 19.6652 14.8832 19.6652 14.9566ZM32.5842 14.9859C32.917 15.0788 33.2497 15.3379 33.4082 15.6361L33.5296 15.8658V20.119V24.3721L33.3712 24.6361C33.0807 25.1201 32.7374 25.2765 31.8818 25.3156L31.2849 25.3401L31.4645 24.9294C32.0402 23.6095 32.2779 22.27 32.2198 20.6567C32.1406 18.3933 31.6018 16.5845 30.63 15.3379C30.4663 15.1277 30.3342 14.9468 30.3342 14.9321C30.3342 14.9223 30.7832 14.9126 31.3272 14.9126C32.0508 14.9126 32.3941 14.9321 32.5842 14.9859ZM26.8747 25.8876C28.2057 26.0587 29.4627 26.3227 30.2814 26.6111C30.6564 26.7431 31.38 27.0755 31.6229 27.2271C31.9293 27.4177 32.3413 27.8382 32.4786 28.0875C33.2286 29.5101 30.8888 30.9865 27.1652 31.4362C26.0719 31.5731 23.9275 31.5731 22.8342 31.4411C20.6687 31.1771 18.8941 30.5563 18.0015 29.7496C17.1669 28.9968 17.1722 28.3026 18.0279 27.5595C19.0578 26.66 21.0754 26.0196 23.5261 25.8191C24.2655 25.7556 26.1564 25.7947 26.8747 25.8876ZM18.2814 31.0451C20.5895 32.3553 25.0103 32.8002 28.6705 32.0913C29.7796 31.8713 31.2691 31.3531 31.8184 30.9914C31.9082 30.9376 31.9874 30.8985 31.9979 30.9082C32.0349 30.9376 31.6863 31.4607 31.4381 31.7589C31.0948 32.1695 30.2867 32.8637 29.806 33.157C28.3694 34.0321 26.7744 34.4672 24.9997 34.4672C23.1564 34.4672 21.424 33.9734 20.0138 33.0397C19.5015 32.7024 18.6775 31.9398 18.3606 31.5095C18.1282 31.1918 17.9539 30.8985 18.0015 30.8985C18.012 30.8985 18.1441 30.962 18.2814 31.0451ZM22.887 35.1467C24.6934 35.4938 26.5155 35.4009 28.2004 34.8681L28.792 34.6823L28.8236 34.8876C28.8395 35.0001 28.8659 35.3911 28.887 35.748C28.9187 36.3787 28.9134 36.4031 28.792 36.5693C28.7233 36.6622 28.586 36.7893 28.4909 36.848L28.3113 36.9604H24.9997H21.6881L21.5085 36.848C21.4134 36.7893 21.2761 36.6622 21.2074 36.5693C21.086 36.4031 21.0807 36.3787 21.1124 35.748C21.1335 35.3911 21.1599 35.0001 21.1758 34.8876L21.2074 34.6823L21.799 34.8681C22.1212 34.9707 22.6124 35.0978 22.887 35.1467Z" fill="#009379"/>
<path d="M23.7373 14.5754C21.313 15.0496 19.908 16.9072 19.6123 20.0458C19.5859 20.3537 19.5594 20.7693 19.5594 20.9648C19.5594 21.2973 19.57 21.3364 19.7126 21.4684C19.8763 21.6199 20.0665 21.6492 20.2619 21.5515C20.4573 21.4586 20.5049 21.3559 20.5102 21.043C20.5102 20.8768 20.5366 20.4613 20.563 20.1191C20.769 17.8165 21.5929 16.3597 23.0559 15.7193C23.5735 15.4944 23.9644 15.4064 24.651 15.3575C25.1897 15.3233 25.2373 15.3086 25.3535 15.1864C25.5172 15.0056 25.5172 14.7513 25.3429 14.5949C25.2267 14.4825 25.1792 14.4727 24.7249 14.4776C24.4556 14.4776 24.0119 14.5216 23.7373 14.5754Z" fill="#009379"/>
<path d="M23.7057 26.5963C22.6546 26.6843 21.667 26.875 20.9486 27.1292C19.4011 27.6816 19.1053 28.7278 20.2832 29.4611C21.7251 30.3606 25.6335 30.6344 28.2427 30.0135C29.806 29.642 30.5561 29.0358 30.4134 28.2585C30.2761 27.5154 28.9927 26.9239 26.9539 26.6648C26.262 26.5768 24.4134 26.5377 23.7057 26.5963ZM26.1353 27.4763C27.6617 27.5936 28.9927 27.9407 29.3782 28.3269L29.505 28.454L29.3782 28.5811C29.0455 28.9087 28.0367 29.2118 26.6634 29.3926C26.0455 29.4709 23.9539 29.4709 23.336 29.3926C21.9627 29.2118 20.9539 28.9087 20.6212 28.5811L20.4944 28.454L20.6212 28.3269C20.7796 28.1607 21.3659 27.9065 21.8835 27.7794C23.0508 27.4812 24.6722 27.3639 26.1353 27.4763Z" fill="#009379"/>
</svg>
